<svg id="svg" version="1.1" width="400" height="400" viewBox="0 0 400 400" xmlns="http://www.w3.org/2000/svg" xmlns:xlink="http://www.w3.org/1999/xlink"><g id="svgg"><path id="path0" d="M80.130 85.558 C 59.734 107.007,43.013 124.659,42.971 124.785 C 42.893 125.018,62.193 143.515,62.512 143.515 C 62.608 143.515,75.161 130.397,90.409 114.364 C 105.657 98.330,118.213 85.180,118.310 85.141 C 118.408 85.102,123.089 89.456,128.713 94.817 L 138.938 104.565 137.259 106.283 C 136.336 107.227,123.770 120.422,109.336 135.604 L 83.091 163.208 84.758 164.849 C 94.925 174.861,102.878 182.077,103.278 181.652 C 105.574 179.209,156.504 125.615,157.446 124.651 L 158.704 123.362 167.049 131.402 C 171.639 135.823,176.247 140.284,177.289 141.315 L 179.185 143.188 123.530 201.952 C 92.919 234.271,67.903 260.787,67.937 260.874 C 67.972 260.962,85.773 277.917,107.496 298.552 L 146.992 336.070 147.977 335.005 C 148.519 334.419,173.493 307.837,203.475 275.935 L 257.988 217.930 261.540 221.287 C 263.493 223.134,268.091 227.459,271.758 230.898 C 275.424 234.338,278.424 237.241,278.424 237.351 C 278.424 237.461,266.533 250.059,252.000 265.347 C 237.467 280.634,224.961 293.817,224.210 294.641 L 222.843 296.138 230.028 302.951 C 233.979 306.698,238.425 310.918,239.907 312.328 L 242.602 314.893 270.452 285.569 C 285.770 269.441,298.378 256.272,298.469 256.304 C 298.831 256.434,318.795 275.735,318.733 275.895 C 318.697 275.990,306.203 289.185,290.970 305.218 C 275.736 321.250,263.273 334.454,263.273 334.560 C 263.273 334.869,282.685 353.246,282.926 353.165 C 283.219 353.066,357.089 275.804,357.090 275.595 C 357.090 275.506,339.827 259.039,318.727 239.003 C 297.627 218.966,279.509 201.744,278.464 200.730 L 276.565 198.888 286.507 188.148 C 297.177 176.622,297.763 175.864,298.536 172.581 C 301.219 161.202,290.312 152.288,279.152 156.739 C 278.885 156.845,279.282 156.426,280.034 155.808 C 292.247 145.765,280.183 126.043,265.666 132.321 L 264.544 132.806 266.151 131.191 C 277.828 119.453,261.536 100.532,248.303 110.464 C 246.801 111.591,247.581 110.727,260.818 96.613 C 276.739 79.635,276.866 79.450,276.538 73.697 C 275.941 63.203,264.304 57.324,255.517 63.076 C 254.748 63.580,243.899 74.856,226.120 93.631 L 197.943 123.388 195.881 121.365 C 190.075 115.670,117.564 46.546,117.402 46.552 C 117.297 46.556,100.525 64.108,80.130 85.558 M218.848 180.791 C 229.415 190.836,238.061 199.107,238.061 199.171 C 238.061 199.235,229.757 208.022,219.608 218.697 L 201.155 238.105 200.153 237.138 C 199.602 236.606,190.877 228.316,180.763 218.717 C 170.649 209.118,162.391 201.171,162.412 201.057 C 162.498 200.583,199.155 162.230,199.385 162.372 C 199.523 162.457,208.282 170.746,218.848 180.791 M163.339 239.462 L 182.556 257.731 180.793 259.621 C 179.824 260.660,171.504 269.432,162.305 279.114 L 145.579 296.717 144.244 295.425 C 143.510 294.715,135.164 286.794,125.697 277.823 C 116.230 268.852,108.063 261.104,107.548 260.604 L 106.612 259.696 125.079 240.267 C 136.897 227.835,143.650 220.903,143.834 221.016 C 143.992 221.114,152.769 229.415,163.339 239.462 " stroke="none" fill="#040404" fill-rule="evenodd"></path><path id="path1" d="M115.750 47.818 L 114.303 49.333 115.818 47.886 C 117.226 46.542,117.444 46.303,117.265 46.303 C 117.228 46.303,116.546 46.985,115.750 47.818 M118.535 47.333 C 119.130 47.967,119.648 48.485,119.687 48.485 C 119.869 48.485,119.676 48.267,118.606 47.263 L 117.455 46.182 118.535 47.333 M121.697 50.248 C 121.697 50.285,122.542 51.131,123.576 52.127 L 125.455 53.939 123.642 52.061 C 121.959 50.316,121.697 50.071,121.697 50.248 M111.145 52.667 L 109.455 54.424 111.212 52.734 C 112.179 51.804,112.970 51.013,112.970 50.976 C 112.970 50.798,112.715 51.034,111.145 52.667 M127.030 55.339 C 127.030 55.376,127.876 56.222,128.909 57.218 L 130.788 59.030 128.976 57.152 C 127.293 55.407,127.030 55.162,127.030 55.339 M106.539 57.515 L 104.848 59.273 106.606 57.582 C 107.573 56.653,108.364 55.862,108.364 55.825 C 108.364 55.647,108.109 55.883,106.539 57.515 M132.606 60.673 C 132.606 60.709,133.452 61.555,134.485 62.552 L 136.364 64.364 134.552 62.485 C 132.868 60.740,132.606 60.495,132.606 60.673 M101.690 62.606 L 100.000 64.364 101.758 62.673 C 103.390 61.103,103.626 60.848,103.448 60.848 C 103.411 60.848,102.620 61.639,101.690 62.606 M252.606 65.333 C 251.613 66.333,250.855 67.152,250.921 67.152 C 250.988 67.152,251.855 66.333,252.848 65.333 C 253.842 64.333,254.600 63.515,254.533 63.515 C 254.467 63.515,253.599 64.333,252.606 65.333 M137.939 65.764 C 137.939 65.800,138.785 66.646,139.818 67.642 L 141.697 69.455 139.885 67.576 C 138.202 65.831,137.939 65.586,137.939 65.764 M96.963 67.576 L 95.394 69.212 97.030 67.643 C 97.930 66.781,98.667 66.044,98.667 66.007 C 98.667 65.829,98.420 66.056,96.963 67.576 M247.871 70.364 L 246.424 71.879 247.939 70.432 C 248.773 69.636,249.455 68.954,249.455 68.917 C 249.455 68.738,249.215 68.956,247.871 70.364 M92.236 72.545 L 90.545 74.303 92.303 72.613 C 93.935 71.042,94.171 70.788,93.993 70.788 C 93.957 70.788,93.166 71.579,92.236 72.545 M143.515 71.097 C 143.515 71.134,144.361 71.979,145.394 72.976 L 147.273 74.788 145.461 72.909 C 143.778 71.164,143.515 70.920,143.515 71.097 M243.508 74.970 L 242.061 76.485 243.576 75.038 C 244.409 74.242,245.091 73.560,245.091 73.523 C 245.091 73.344,244.852 73.562,243.508 74.970 M87.508 77.515 L 85.939 79.152 87.576 77.583 C 88.476 76.720,89.212 75.984,89.212 75.946 C 89.212 75.768,88.965 75.995,87.508 77.515 M148.848 76.188 C 148.848 76.225,149.694 77.070,150.727 78.067 L 152.606 79.879 150.794 78.000 C 149.111 76.255,148.848 76.011,148.848 76.188 M239.144 79.576 L 237.697 81.091 239.212 79.644 C 240.045 78.848,240.727 78.166,240.727 78.129 C 240.727 77.950,240.488 78.168,239.144 79.576 M82.781 82.485 L 81.091 84.242 82.848 82.552 C 84.481 80.982,84.717 80.727,84.539 80.727 C 84.502 80.727,83.711 81.518,82.781 82.485 M154.424 81.521 C 154.424 81.558,155.270 82.403,156.303 83.400 L 158.182 85.212 156.370 83.333 C 154.687 81.588,154.424 81.344,154.424 81.521 M234.902 84.061 L 233.333 85.697 234.970 84.128 C 235.870 83.265,236.606 82.529,236.606 82.492 C 236.606 82.313,236.359 82.541,234.902 84.061 M272.595 84.182 L 271.636 85.212 272.667 84.254 C 273.625 83.363,273.808 83.152,273.625 83.152 C 273.585 83.152,273.122 83.615,272.595 84.182 M116.840 86.728 L 115.273 88.364 116.854 86.850 L 118.434 85.336 119.460 86.362 C 120.023 86.925,120.485 87.329,120.485 87.259 C 120.485 87.189,120.018 86.673,119.446 86.112 L 118.408 85.093 116.840 86.728 M77.933 87.576 L 76.242 89.333 78.000 87.643 C 79.632 86.073,79.868 85.818,79.690 85.818 C 79.654 85.818,78.863 86.609,77.933 87.576 M159.758 86.612 C 159.758 86.649,160.603 87.494,161.636 88.491 L 163.515 90.303 161.703 88.424 C 160.020 86.679,159.758 86.435,159.758 86.612 M269.203 87.818 L 268.000 89.091 269.273 87.888 C 269.973 87.226,270.545 86.654,270.545 86.615 C 270.545 86.434,270.321 86.636,269.203 87.818 M230.538 88.667 L 228.970 90.303 230.606 88.734 C 231.506 87.871,232.242 87.135,232.242 87.098 C 232.242 86.919,231.996 87.147,230.538 88.667 M123.758 90.424 C 124.684 91.358,125.496 92.121,125.563 92.121 C 125.629 92.121,124.926 91.358,124.000 90.424 C 123.074 89.491,122.261 88.727,122.195 88.727 C 122.128 88.727,122.831 89.491,123.758 90.424 M112.357 91.455 L 110.667 93.212 112.424 91.522 C 114.057 89.952,114.293 89.697,114.115 89.697 C 114.078 89.697,113.287 90.488,112.357 91.455 M265.567 91.697 L 264.364 92.970 265.636 91.767 C 266.336 91.105,266.909 90.532,266.909 90.494 C 266.909 90.313,266.685 90.514,265.567 91.697 M73.327 92.424 L 71.636 94.182 73.394 92.491 C 75.026 90.921,75.262 90.667,75.084 90.667 C 75.047 90.667,74.257 91.458,73.327 92.424 M226.175 93.273 L 224.606 94.909 226.242 93.340 C 227.142 92.478,227.879 91.741,227.879 91.704 C 227.879 91.526,227.632 91.753,226.175 93.273 M165.333 91.945 C 165.333 91.982,166.179 92.828,167.212 93.824 L 169.091 95.636 167.279 93.758 C 165.596 92.013,165.333 91.768,165.333 91.945 M127.273 93.642 C 127.273 93.679,128.118 94.525,129.152 95.521 L 131.030 97.333 129.218 95.455 C 127.535 93.710,127.273 93.465,127.273 93.642 M261.930 95.576 L 260.727 96.848 262.000 95.645 C 262.700 94.984,263.273 94.411,263.273 94.373 C 263.273 94.192,263.048 94.393,261.930 95.576 M107.509 96.545 L 105.818 98.303 107.576 96.613 C 109.208 95.042,109.444 94.788,109.266 94.788 C 109.229 94.788,108.438 95.579,107.509 96.545 M68.478 97.515 L 66.788 99.273 68.545 97.582 C 70.178 96.012,70.414 95.758,70.236 95.758 C 70.199 95.758,69.408 96.548,68.478 97.515 M221.811 97.879 L 220.242 99.515 221.879 97.946 C 222.779 97.084,223.515 96.347,223.515 96.310 C 223.515 96.132,223.268 96.359,221.811 97.879 M170.667 97.036 C 170.667 97.073,171.512 97.918,172.545 98.915 L 174.424 100.727 172.612 98.848 C 170.929 97.104,170.667 96.859,170.667 97.036 M258.294 99.455 L 257.091 100.727 258.364 99.524 C 259.064 98.863,259.636 98.290,259.636 98.252 C 259.636 98.071,259.412 98.272,258.294 99.455 M134.182 100.364 C 135.108 101.297,135.920 102.061,135.987 102.061 C 136.054 102.061,135.350 101.297,134.424 100.364 C 133.498 99.430,132.686 98.667,132.619 98.667 C 132.552 98.667,133.256 99.430,134.182 100.364 M102.781 101.515 L 101.212 103.152 102.848 101.583 C 103.748 100.720,104.485 99.984,104.485 99.946 C 104.485 99.768,104.238 99.995,102.781 101.515 M63.872 102.364 L 62.182 104.121 63.939 102.431 C 64.906 101.501,65.697 100.710,65.697 100.673 C 65.697 100.495,65.442 100.731,63.872 102.364 M217.448 102.485 L 215.879 104.121 217.515 102.552 C 218.415 101.690,219.152 100.953,219.152 100.916 C 219.152 100.738,218.905 100.965,217.448 102.485 M254.658 103.333 L 253.455 104.606 254.727 103.403 C 255.427 102.741,256.000 102.169,256.000 102.130 C 256.000 101.949,255.775 102.151,254.658 103.333 M176.242 102.370 C 176.242 102.406,177.088 103.252,178.121 104.248 L 180.000 106.061 178.188 104.182 C 176.505 102.437,176.242 102.192,176.242 102.370 M98.054 106.485 L 96.364 108.242 98.121 106.552 C 99.088 105.622,99.879 104.831,99.879 104.794 C 99.879 104.617,99.624 104.852,98.054 106.485 M213.084 107.091 L 211.515 108.727 213.152 107.159 C 214.052 106.296,214.788 105.559,214.788 105.522 C 214.788 105.344,214.541 105.571,213.084 107.091 M59.024 107.455 L 57.333 109.212 59.091 107.522 C 60.058 106.592,60.848 105.801,60.848 105.764 C 60.848 105.586,60.594 105.822,59.024 107.455 M251.021 107.212 L 249.818 108.485 251.091 107.282 C 251.791 106.620,252.364 106.047,252.364 106.009 C 252.364 105.828,252.139 106.029,251.021 107.212 M135.508 107.818 L 133.939 109.455 135.576 107.886 C 136.476 107.023,137.212 106.287,137.212 106.249 C 137.212 106.071,136.965 106.298,135.508 107.818 M181.576 107.461 C 181.576 107.497,182.421 108.343,183.455 109.339 L 185.333 111.152 183.521 109.273 C 181.838 107.528,181.576 107.283,181.576 107.461 M93.326 111.455 L 91.758 113.091 93.394 111.522 C 94.294 110.659,95.030 109.923,95.030 109.886 C 95.030 109.707,94.783 109.935,93.326 111.455 M208.720 111.697 L 207.152 113.333 208.788 111.765 C 209.688 110.902,210.424 110.165,210.424 110.128 C 210.424 109.950,210.177 110.177,208.720 111.697 M54.418 112.303 L 52.727 114.061 54.485 112.370 C 56.117 110.800,56.353 110.545,56.175 110.545 C 56.138 110.545,55.347 111.336,54.418 112.303 M130.781 112.788 L 129.091 114.545 130.848 112.855 C 131.815 111.925,132.606 111.134,132.606 111.097 C 132.606 110.920,132.351 111.155,130.781 112.788 M187.152 112.794 C 187.152 112.831,187.997 113.676,189.030 114.673 L 190.909 116.485 189.097 114.606 C 187.414 112.861,187.152 112.617,187.152 112.794 M88.600 116.424 L 86.909 118.182 88.667 116.491 C 90.299 114.921,90.535 114.667,90.357 114.667 C 90.320 114.667,89.529 115.458,88.600 116.424 M204.477 116.182 L 203.030 117.697 204.545 116.250 C 205.379 115.454,206.061 114.772,206.061 114.735 C 206.061 114.556,205.821 114.774,204.477 116.182 M49.569 117.394 L 47.879 119.152 49.636 117.461 C 51.269 115.891,51.505 115.636,51.327 115.636 C 51.290 115.636,50.499 116.427,49.569 117.394 M126.054 117.758 L 124.485 119.394 126.121 117.825 C 127.021 116.962,127.758 116.226,127.758 116.189 C 127.758 116.010,127.511 116.238,126.054 117.758 M192.485 117.885 C 192.485 117.922,193.330 118.767,194.364 119.764 L 196.242 121.576 194.430 119.697 C 192.747 117.952,192.485 117.708,192.485 117.885 M200.114 120.788 L 198.667 122.303 200.182 120.856 C 201.015 120.060,201.697 119.378,201.697 119.341 C 201.697 119.162,201.458 119.380,200.114 120.788 M83.872 121.394 L 82.303 123.030 83.939 121.462 C 84.839 120.599,85.576 119.862,85.576 119.825 C 85.576 119.647,85.329 119.874,83.872 121.394 M44.841 122.364 L 43.273 124.000 44.909 122.431 C 45.809 121.568,46.545 120.832,46.545 120.795 C 46.545 120.616,46.299 120.844,44.841 122.364 M121.327 122.727 L 119.636 124.485 121.394 122.794 C 122.361 121.865,123.152 121.074,123.152 121.037 C 123.152 120.859,122.897 121.095,121.327 122.727 M160.242 125.212 C 161.101 126.079,161.859 126.788,161.925 126.788 C 161.992 126.788,161.344 126.079,160.485 125.212 C 159.626 124.345,158.869 123.636,158.802 123.636 C 158.735 123.636,159.383 124.345,160.242 125.212 M79.145 126.364 L 77.455 128.121 79.212 126.431 C 80.845 124.861,81.080 124.606,80.903 124.606 C 80.866 124.606,80.075 125.397,79.145 126.364 M155.629 126.727 L 154.061 128.364 155.697 126.795 C 156.597 125.932,157.333 125.196,157.333 125.159 C 157.333 124.980,157.086 125.207,155.629 126.727 M116.599 127.697 L 115.030 129.333 116.667 127.765 C 117.567 126.902,118.303 126.165,118.303 126.128 C 118.303 125.950,118.056 126.177,116.599 127.697 M45.939 128.242 C 46.866 129.176,47.678 129.939,47.745 129.939 C 47.811 129.939,47.108 129.176,46.182 128.242 C 45.256 127.309,44.443 126.545,44.377 126.545 C 44.310 126.545,45.013 127.309,45.939 128.242 M166.424 131.152 C 167.753 132.485,168.894 133.576,168.961 133.576 C 169.027 133.576,167.995 132.485,166.667 131.152 C 165.338 129.818,164.197 128.727,164.130 128.727 C 164.064 128.727,165.096 129.818,166.424 131.152 M74.417 131.333 L 72.848 132.970 74.485 131.401 C 75.385 130.538,76.121 129.802,76.121 129.765 C 76.121 129.586,75.874 129.813,74.417 131.333 M150.903 131.697 L 149.212 133.455 150.970 131.764 C 152.602 130.194,152.838 129.939,152.660 129.939 C 152.623 129.939,151.832 130.730,150.903 131.697 M266.182 131.273 C 265.593 131.873,265.243 132.364,265.404 132.364 C 265.565 132.364,265.697 132.248,265.697 132.107 C 265.697 131.966,265.833 131.929,266.000 132.025 C 266.167 132.120,266.219 132.107,266.117 131.994 C 266.015 131.882,266.281 131.428,266.710 130.986 C 267.138 130.544,267.436 130.182,267.371 130.182 C 267.306 130.182,266.771 130.673,266.182 131.273 M111.872 132.667 L 110.182 134.424 111.939 132.734 C 113.572 131.164,113.808 130.909,113.630 130.909 C 113.593 130.909,112.802 131.700,111.872 132.667 M270.727 131.080 C 271.027 131.138,271.518 131.138,271.818 131.080 C 272.118 131.022,271.873 130.975,271.273 130.975 C 270.673 130.975,270.427 131.022,270.727 131.080 M50.788 132.848 C 51.714 133.782,52.526 134.545,52.593 134.545 C 52.660 134.545,51.956 133.782,51.030 132.848 C 50.104 131.915,49.292 131.152,49.225 131.152 C 49.158 131.152,49.862 131.915,50.788 132.848 M280.960 135.091 C 281.964 136.161,282.182 136.354,282.182 136.172 C 282.182 136.133,281.664 135.615,281.030 135.020 L 279.879 133.939 280.960 135.091 M69.690 136.303 L 68.000 138.061 69.758 136.370 C 71.390 134.800,71.626 134.545,71.448 134.545 C 71.411 134.545,70.620 135.336,69.690 136.303 M146.054 136.788 L 144.364 138.545 146.121 136.855 C 147.754 135.285,147.989 135.030,147.812 135.030 C 147.775 135.030,146.984 135.821,146.054 136.788 M173.455 137.939 C 174.783 139.273,175.924 140.364,175.991 140.364 C 176.058 140.364,175.025 139.273,173.697 137.939 C 172.369 136.606,171.227 135.515,171.161 135.515 C 171.094 135.515,172.126 136.606,173.455 137.939 M55.879 137.697 C 56.805 138.630,57.617 139.394,57.684 139.394 C 57.751 139.394,57.047 138.630,56.121 137.697 C 55.195 136.764,54.383 136.000,54.316 136.000 C 54.249 136.000,54.953 136.764,55.879 137.697 M107.024 137.758 L 105.333 139.515 107.091 137.825 C 108.723 136.255,108.959 136.000,108.781 136.000 C 108.744 136.000,107.954 136.791,107.024 137.758 M64.963 141.273 L 63.394 142.909 65.030 141.340 C 65.930 140.478,66.667 139.741,66.667 139.704 C 66.667 139.526,66.420 139.753,64.963 141.273 M141.448 141.636 L 139.758 143.394 141.515 141.703 C 143.148 140.133,143.383 139.879,143.206 139.879 C 143.169 139.879,142.378 140.670,141.448 141.636 M60.727 142.303 C 61.519 143.103,62.221 143.758,62.288 143.758 C 62.355 143.758,61.761 143.103,60.970 142.303 C 60.178 141.503,59.476 140.848,59.409 140.848 C 59.342 140.848,59.936 141.503,60.727 142.303 M102.418 142.606 L 100.727 144.364 102.485 142.673 C 104.117 141.103,104.353 140.848,104.175 140.848 C 104.138 140.848,103.347 141.639,102.418 142.606 M177.807 144.303 L 176.848 145.333 177.879 144.375 C 178.837 143.484,179.020 143.273,178.837 143.273 C 178.797 143.273,178.334 143.736,177.807 144.303 M285.166 145.091 C 285.167 145.891,285.213 146.189,285.267 145.753 C 285.321 145.318,285.319 144.663,285.264 144.299 C 285.209 143.934,285.165 144.291,285.166 145.091 M136.600 146.727 L 134.909 148.485 136.667 146.794 C 138.299 145.224,138.535 144.970,138.357 144.970 C 138.320 144.970,137.529 145.761,136.600 146.727 M97.569 147.697 L 95.879 149.455 97.636 147.764 C 99.269 146.194,99.505 145.939,99.327 145.939 C 99.290 145.939,98.499 146.730,97.569 147.697 M174.054 148.303 L 172.485 149.939 174.121 148.371 C 175.021 147.508,175.758 146.771,175.758 146.734 C 175.758 146.556,175.511 146.783,174.054 148.303 M131.993 151.576 L 130.303 153.333 132.061 151.643 C 133.693 150.073,133.929 149.818,133.751 149.818 C 133.714 149.818,132.923 150.609,131.993 151.576 M92.963 152.545 L 91.273 154.303 93.030 152.613 C 94.663 151.042,94.899 150.788,94.721 150.788 C 94.684 150.788,93.893 151.579,92.963 152.545 M169.690 152.909 L 168.121 154.545 169.758 152.977 C 171.277 151.520,171.505 151.273,171.326 151.273 C 171.289 151.273,170.553 152.009,169.690 152.909 M280.961 155.078 C 280.233 155.837,279.810 156.329,280.022 156.171 C 280.235 156.012,280.507 155.964,280.628 156.063 C 280.749 156.162,280.764 156.140,280.661 156.015 C 280.558 155.890,280.935 155.317,281.500 154.742 C 282.064 154.167,282.471 153.697,282.406 153.697 C 282.340 153.697,281.690 154.318,280.961 155.078 M127.145 156.667 L 125.455 158.424 127.212 156.734 C 128.845 155.164,129.080 154.909,128.903 154.909 C 128.866 154.909,128.075 155.700,127.145 156.667 M284.424 155.325 C 284.791 155.381,285.391 155.381,285.758 155.325 C 286.124 155.270,285.824 155.224,285.091 155.224 C 284.358 155.224,284.058 155.270,284.424 155.325 M88.115 157.636 L 86.424 159.394 88.182 157.703 C 89.814 156.133,90.050 155.879,89.872 155.879 C 89.835 155.879,89.044 156.670,88.115 157.636 M165.326 157.515 L 163.758 159.152 165.394 157.583 C 166.914 156.126,167.141 155.879,166.963 155.879 C 166.926 155.879,166.189 156.615,165.326 157.515 M122.539 161.515 L 120.848 163.273 122.606 161.582 C 124.238 160.012,124.474 159.758,124.297 159.758 C 124.260 159.758,123.469 160.548,122.539 161.515 M161.083 162.000 L 159.636 163.515 161.152 162.068 C 161.985 161.272,162.667 160.591,162.667 160.553 C 162.667 160.374,162.427 160.593,161.083 162.000 M83.991 162.000 L 82.788 163.273 84.061 162.070 C 84.761 161.408,85.333 160.835,85.333 160.797 C 85.333 160.616,85.109 160.817,83.991 162.000 M196.841 164.788 L 195.273 166.424 196.909 164.855 C 197.809 163.993,198.545 163.256,198.545 163.219 C 198.545 163.041,198.299 163.268,196.841 164.788 M117.690 166.606 L 116.000 168.364 117.758 166.673 C 119.390 165.103,119.626 164.848,119.448 164.848 C 119.411 164.848,118.620 165.639,117.690 166.606 M86.303 166.667 C 87.162 167.533,87.919 168.242,87.986 168.242 C 88.053 168.242,87.404 167.533,86.545 166.667 C 85.686 165.800,84.929 165.091,84.862 165.091 C 84.796 165.091,85.444 165.800,86.303 166.667 M156.720 166.606 L 155.273 168.121 156.788 166.674 C 157.621 165.878,158.303 165.197,158.303 165.159 C 158.303 164.980,158.064 165.199,156.720 166.606 M203.636 166.667 C 204.495 167.533,205.253 168.242,205.319 168.242 C 205.386 168.242,204.738 167.533,203.879 166.667 C 203.020 165.800,202.262 165.091,202.196 165.091 C 202.129 165.091,202.777 165.800,203.636 166.667 M192.235 169.636 L 190.667 171.273 192.303 169.704 C 193.203 168.841,193.939 168.105,193.939 168.068 C 193.939 167.889,193.693 168.116,192.235 169.636 M91.273 171.394 C 92.199 172.327,93.011 173.091,93.078 173.091 C 93.145 173.091,92.441 172.327,91.515 171.394 C 90.589 170.461,89.777 169.697,89.710 169.697 C 89.643 169.697,90.347 170.461,91.273 171.394 M152.356 171.212 L 150.909 172.727 152.424 171.280 C 153.258 170.484,153.939 169.803,153.939 169.765 C 153.939 169.586,153.700 169.805,152.356 171.212 M208.485 171.273 C 209.344 172.139,210.101 172.848,210.168 172.848 C 210.234 172.848,209.586 172.139,208.727 171.273 C 207.868 170.406,207.111 169.697,207.044 169.697 C 206.978 169.697,207.626 170.406,208.485 171.273 M112.963 171.576 L 111.394 173.212 113.030 171.643 C 114.550 170.186,114.777 169.939,114.599 169.939 C 114.562 169.939,113.826 170.676,112.963 171.576 M187.629 174.485 L 186.061 176.121 187.697 174.552 C 188.597 173.690,189.333 172.953,189.333 172.916 C 189.333 172.738,189.086 172.965,187.629 174.485 M147.992 175.818 L 146.545 177.333 148.061 175.886 C 148.894 175.091,149.576 174.409,149.576 174.371 C 149.576 174.192,149.337 174.411,147.992 175.818 M213.333 175.879 C 214.192 176.745,214.950 177.455,215.016 177.455 C 215.083 177.455,214.435 176.745,213.576 175.879 C 212.717 175.012,211.959 174.303,211.893 174.303 C 211.826 174.303,212.474 175.012,213.333 175.879 M96.242 176.121 C 97.101 176.988,97.859 177.697,97.925 177.697 C 97.992 177.697,97.344 176.988,96.485 176.121 C 95.626 175.255,94.869 174.545,94.802 174.545 C 94.735 174.545,95.383 175.255,96.242 176.121 M108.236 176.545 L 106.545 178.303 108.303 176.613 C 109.935 175.042,110.171 174.788,109.993 174.788 C 109.957 174.788,109.166 175.579,108.236 176.545 M183.023 179.333 L 181.455 180.970 183.091 179.401 C 183.991 178.538,184.727 177.802,184.727 177.765 C 184.727 177.586,184.480 177.813,183.023 179.333 M295.017 179.091 L 294.182 180.000 295.091 179.165 C 295.937 178.387,296.111 178.182,295.926 178.182 C 295.886 178.182,295.477 178.591,295.017 179.091 M143.751 180.303 L 142.182 181.939 143.818 180.371 C 144.718 179.508,145.455 178.771,145.455 178.734 C 145.455 178.556,145.208 178.783,143.751 180.303 M218.182 180.485 C 219.041 181.352,219.798 182.061,219.865 182.061 C 219.931 182.061,219.283 181.352,218.424 180.485 C 217.565 179.618,216.808 178.909,216.741 178.909 C 216.675 178.909,217.323 179.618,218.182 180.485 M101.151 180.727 L 102.787 182.419 104.060 181.092 L 105.333 179.764 104.060 180.965 L 102.786 182.166 101.150 180.600 L 99.515 179.035 101.151 180.727 M292.121 182.182 C 291.532 182.782,291.105 183.273,291.172 183.273 C 291.238 183.273,291.775 182.782,292.364 182.182 C 292.952 181.582,293.380 181.091,293.313 181.091 C 293.246 181.091,292.710 181.582,292.121 182.182 M178.417 184.182 L 176.848 185.818 178.485 184.249 C 179.385 183.387,180.121 182.650,180.121 182.613 C 180.121 182.435,179.874 182.662,178.417 184.182 M139.387 184.909 L 137.818 186.545 139.455 184.977 C 140.355 184.114,141.091 183.378,141.091 183.340 C 141.091 183.162,140.844 183.389,139.387 184.909 M223.030 185.091 C 223.889 185.958,224.647 186.667,224.713 186.667 C 224.780 186.667,224.132 185.958,223.273 185.091 C 222.414 184.224,221.656 183.515,221.590 183.515 C 221.523 183.515,222.171 184.224,223.030 185.091 M289.212 185.333 C 288.623 185.933,288.196 186.424,288.263 186.424 C 288.329 186.424,288.866 185.933,289.455 185.333 C 290.043 184.733,290.471 184.242,290.404 184.242 C 290.337 184.242,289.801 184.733,289.212 185.333 M173.811 189.030 L 172.242 190.667 173.879 189.098 C 174.779 188.235,175.515 187.499,175.515 187.462 C 175.515 187.283,175.268 187.510,173.811 189.030 M286.061 188.727 C 285.472 189.327,285.045 189.818,285.111 189.818 C 285.178 189.818,285.714 189.327,286.303 188.727 C 286.892 188.127,287.319 187.636,287.252 187.636 C 287.186 187.636,286.649 188.127,286.061 188.727 M135.023 189.515 L 133.455 191.152 135.091 189.583 C 135.991 188.720,136.727 187.984,136.727 187.946 C 136.727 187.768,136.480 187.995,135.023 189.515 M227.879 189.697 C 228.738 190.564,229.495 191.273,229.562 191.273 C 229.628 191.273,228.980 190.564,228.121 189.697 C 227.262 188.830,226.505 188.121,226.438 188.121 C 226.372 188.121,227.020 188.830,227.879 189.697 M283.152 191.879 C 282.563 192.479,282.135 192.970,282.202 192.970 C 282.269 192.970,282.805 192.479,283.394 191.879 C 283.983 191.279,284.410 190.788,284.343 190.788 C 284.277 190.788,283.740 191.279,283.152 191.879 M169.205 193.879 L 167.636 195.515 169.273 193.946 C 170.793 192.489,171.020 192.242,170.841 192.242 C 170.804 192.242,170.068 192.979,169.205 193.879 M130.660 194.121 L 129.091 195.758 130.727 194.189 C 131.627 193.326,132.364 192.590,132.364 192.552 C 132.364 192.374,132.117 192.601,130.660 194.121 M232.727 194.303 C 233.586 195.170,234.344 195.879,234.410 195.879 C 234.477 195.879,233.829 195.170,232.970 194.303 C 232.111 193.436,231.353 192.727,231.287 192.727 C 231.220 192.727,231.868 193.436,232.727 194.303 M280.000 195.273 C 279.411 195.873,278.984 196.364,279.051 196.364 C 279.117 196.364,279.654 195.873,280.242 195.273 C 280.831 194.673,281.259 194.182,281.192 194.182 C 281.125 194.182,280.589 194.673,280.000 195.273 M126.296 198.727 L 124.727 200.364 126.364 198.795 C 127.884 197.338,128.111 197.091,127.932 197.091 C 127.895 197.091,127.159 197.827,126.296 198.727 M164.599 198.727 L 163.030 200.364 164.667 198.795 C 166.187 197.338,166.414 197.091,166.235 197.091 C 166.198 197.091,165.462 197.827,164.599 198.727 M236.919 198.251 L 237.815 199.168 237.271 199.760 L 236.727 200.351 237.398 199.766 L 238.069 199.180 237.167 198.257 C 236.671 197.749,236.211 197.333,236.144 197.333 C 236.077 197.333,236.426 197.746,236.919 198.251 M277.439 198.121 L 276.727 198.909 277.515 198.197 C 278.250 197.533,278.414 197.333,278.227 197.333 C 278.185 197.333,277.831 197.688,277.439 198.121 M280.606 202.667 C 281.532 203.600,282.345 204.364,282.411 204.364 C 282.478 204.364,281.775 203.600,280.848 202.667 C 279.922 201.733,279.110 200.970,279.043 200.970 C 278.977 200.970,279.680 201.733,280.606 202.667 M121.932 203.333 L 120.364 204.970 122.000 203.401 C 123.520 201.944,123.747 201.697,123.569 201.697 C 123.532 201.697,122.795 202.433,121.932 203.333 M164.848 203.515 C 165.707 204.382,166.465 205.091,166.531 205.091 C 166.598 205.091,165.950 204.382,165.091 203.515 C 164.232 202.648,163.475 201.939,163.408 201.939 C 163.341 201.939,163.990 202.648,164.848 203.515 M233.690 203.576 L 232.121 205.212 233.758 203.643 C 234.658 202.781,235.394 202.044,235.394 202.007 C 235.394 201.829,235.147 202.056,233.690 203.576 M285.455 207.273 C 286.381 208.206,287.193 208.970,287.260 208.970 C 287.326 208.970,286.623 208.206,285.697 207.273 C 284.771 206.339,283.958 205.576,283.892 205.576 C 283.825 205.576,284.528 206.339,285.455 207.273 M117.569 207.939 L 116.000 209.576 117.636 208.007 C 118.536 207.144,119.273 206.408,119.273 206.371 C 119.273 206.192,119.026 206.419,117.569 207.939 M169.697 208.121 C 170.556 208.988,171.313 209.697,171.380 209.697 C 171.447 209.697,170.798 208.988,169.939 208.121 C 169.080 207.255,168.323 206.545,168.256 206.545 C 168.190 206.545,168.838 207.255,169.697 208.121 M229.084 208.424 L 227.515 210.061 229.152 208.492 C 230.052 207.629,230.788 206.893,230.788 206.855 C 230.788 206.677,230.541 206.904,229.084 208.424 M290.303 211.879 C 291.229 212.812,292.042 213.576,292.108 213.576 C 292.175 213.576,291.472 212.812,290.545 211.879 C 289.619 210.945,288.807 210.182,288.740 210.182 C 288.674 210.182,289.377 210.945,290.303 211.879 M113.326 212.424 L 111.879 213.939 113.394 212.492 C 114.801 211.148,115.020 210.909,114.841 210.909 C 114.803 210.909,114.122 211.591,113.326 212.424 M174.545 212.727 C 175.404 213.594,176.162 214.303,176.228 214.303 C 176.295 214.303,175.647 213.594,174.788 212.727 C 173.929 211.861,173.172 211.152,173.105 211.152 C 173.038 211.152,173.686 211.861,174.545 212.727 M224.478 213.273 L 222.909 214.909 224.545 213.340 C 225.445 212.478,226.182 211.741,226.182 211.704 C 226.182 211.526,225.935 211.753,224.478 213.273 M295.152 216.485 C 296.078 217.418,296.890 218.182,296.957 218.182 C 297.023 218.182,296.320 217.418,295.394 216.485 C 294.468 215.552,293.655 214.788,293.589 214.788 C 293.522 214.788,294.225 215.552,295.152 216.485 M108.962 217.030 L 107.515 218.545 109.030 217.098 C 109.864 216.303,110.545 215.621,110.545 215.583 C 110.545 215.404,110.306 215.623,108.962 217.030 M179.394 217.333 C 180.253 218.200,181.010 218.909,181.077 218.909 C 181.144 218.909,180.495 218.200,179.636 217.333 C 178.777 216.467,178.020 215.758,177.953 215.758 C 177.887 215.758,178.535 216.467,179.394 217.333 M219.872 218.121 L 218.303 219.758 219.939 218.189 C 220.839 217.326,221.576 216.590,221.576 216.552 C 221.576 216.374,221.329 216.601,219.872 218.121 M257.310 218.727 L 256.848 219.273 257.389 218.815 C 257.858 218.418,257.987 218.402,258.359 218.694 C 258.749 219.000,258.757 218.992,258.455 218.606 C 258.022 218.054,257.866 218.071,257.310 218.727 M300.000 221.091 C 300.926 222.024,301.739 222.788,301.805 222.788 C 301.872 222.788,301.169 222.024,300.242 221.091 C 299.316 220.158,298.504 219.394,298.437 219.394 C 298.371 219.394,299.074 220.158,300.000 221.091 M261.091 221.212 C 261.815 221.945,262.462 222.545,262.529 222.545 C 262.596 222.545,262.058 221.945,261.333 221.212 C 260.609 220.479,259.962 219.879,259.895 219.879 C 259.829 219.879,260.367 220.479,261.091 221.212 M104.598 221.636 L 103.152 223.152 104.667 221.705 C 106.074 220.360,106.293 220.121,106.114 220.121 C 106.076 220.121,105.394 220.803,104.598 221.636 M184.242 221.939 C 185.101 222.806,185.859 223.515,185.925 223.515 C 185.992 223.515,185.344 222.806,184.485 221.939 C 183.626 221.073,182.869 220.364,182.802 220.364 C 182.735 220.364,183.383 221.073,184.242 221.939 M254.537 221.758 L 253.212 223.152 254.606 221.826 C 255.901 220.595,256.111 220.364,255.931 220.364 C 255.893 220.364,255.266 220.991,254.537 221.758 M142.655 221.879 L 141.697 222.909 142.675 222.002 L 143.652 221.096 144.366 221.760 L 145.081 222.424 144.374 221.636 C 143.527 220.693,143.793 220.655,142.655 221.879 M215.266 222.970 L 213.697 224.606 215.333 223.037 C 216.233 222.174,216.970 221.438,216.970 221.401 C 216.970 221.223,216.723 221.450,215.266 222.970 M264.970 224.848 C 265.694 225.582,266.341 226.182,266.408 226.182 C 266.474 226.182,265.936 225.582,265.212 224.848 C 264.488 224.115,263.841 223.515,263.774 223.515 C 263.707 223.515,264.245 224.115,264.970 224.848 M148.121 225.333 C 148.980 226.200,149.738 226.909,149.804 226.909 C 149.871 226.909,149.223 226.200,148.364 225.333 C 147.505 224.467,146.747 223.758,146.681 223.758 C 146.614 223.758,147.262 224.467,148.121 225.333 M304.848 225.697 C 305.775 226.630,306.587 227.394,306.654 227.394 C 306.720 227.394,306.017 226.630,305.091 225.697 C 304.165 224.764,303.352 224.000,303.286 224.000 C 303.219 224.000,303.922 224.764,304.848 225.697 M138.781 226.000 L 137.091 227.758 138.848 226.067 C 140.481 224.497,140.717 224.242,140.539 224.242 C 140.502 224.242,139.711 225.033,138.781 226.000 M250.658 225.879 L 249.333 227.273 250.727 225.948 C 252.022 224.717,252.232 224.485,252.052 224.485 C 252.014 224.485,251.387 225.112,250.658 225.879 M100.235 226.242 L 98.788 227.758 100.303 226.311 C 101.710 224.967,101.929 224.727,101.750 224.727 C 101.712 224.727,101.031 225.409,100.235 226.242 M189.091 226.545 C 189.950 227.412,190.707 228.121,190.774 228.121 C 190.841 228.121,190.192 227.412,189.333 226.545 C 188.474 225.679,187.717 224.970,187.650 224.970 C 187.584 224.970,188.232 225.679,189.091 226.545 M210.660 227.818 L 209.091 229.455 210.727 227.886 C 211.627 227.023,212.364 226.287,212.364 226.249 C 212.364 226.071,212.117 226.298,210.660 227.818 M268.848 228.485 C 269.573 229.218,270.220 229.818,270.286 229.818 C 270.353 229.818,269.815 229.218,269.091 228.485 C 268.367 227.752,267.720 227.152,267.653 227.152 C 267.586 227.152,268.124 227.752,268.848 228.485 M152.970 229.939 C 153.829 230.806,154.586 231.515,154.653 231.515 C 154.719 231.515,154.071 230.806,153.212 229.939 C 152.353 229.073,151.596 228.364,151.529 228.364 C 151.462 228.364,152.111 229.073,152.970 229.939 M246.780 230.000 L 245.455 231.394 246.848 230.069 C 248.143 228.838,248.353 228.606,248.174 228.606 C 248.136 228.606,247.508 229.233,246.780 230.000 M309.697 230.303 C 310.623 231.236,311.435 232.000,311.502 232.000 C 311.569 232.000,310.866 231.236,309.939 230.303 C 309.013 229.370,308.201 228.606,308.134 228.606 C 308.068 228.606,308.771 229.370,309.697 230.303 M95.993 230.727 L 94.424 232.364 96.061 230.795 C 97.581 229.338,97.808 229.091,97.629 229.091 C 97.592 229.091,96.856 229.827,95.993 230.727 M134.175 230.848 L 132.485 232.606 134.242 230.916 C 135.875 229.345,136.111 229.091,135.933 229.091 C 135.896 229.091,135.105 229.882,134.175 230.848 M193.939 231.152 C 194.798 232.018,195.556 232.727,195.622 232.727 C 195.689 232.727,195.041 232.018,194.182 231.152 C 193.323 230.285,192.566 229.576,192.499 229.576 C 192.432 229.576,193.080 230.285,193.939 231.152 M206.054 232.667 L 204.485 234.303 206.121 232.734 C 207.021 231.871,207.758 231.135,207.758 231.098 C 207.758 230.919,207.511 231.147,206.054 232.667 M272.848 232.242 C 273.505 232.909,274.097 233.455,274.164 233.455 C 274.230 233.455,273.748 232.909,273.091 232.242 C 272.434 231.576,271.842 231.030,271.776 231.030 C 271.709 231.030,272.192 231.576,272.848 232.242 M243.143 233.879 L 241.818 235.273 243.212 233.948 C 244.507 232.717,244.717 232.485,244.537 232.485 C 244.499 232.485,243.872 233.112,243.143 233.879 M157.818 234.545 C 158.677 235.412,159.434 236.121,159.501 236.121 C 159.568 236.121,158.920 235.412,158.061 234.545 C 157.202 233.679,156.444 232.970,156.378 232.970 C 156.311 232.970,156.959 233.679,157.818 234.545 M314.545 234.909 C 315.472 235.842,316.284 236.606,316.351 236.606 C 316.417 236.606,315.714 235.842,314.788 234.909 C 313.862 233.976,313.049 233.212,312.983 233.212 C 312.916 233.212,313.619 233.976,314.545 234.909 M91.629 235.333 L 90.061 236.970 91.697 235.401 C 92.597 234.538,93.333 233.802,93.333 233.765 C 93.333 233.586,93.086 233.813,91.629 235.333 M129.569 235.697 L 127.879 237.455 129.636 235.764 C 131.269 234.194,131.505 233.939,131.327 233.939 C 131.290 233.939,130.499 234.730,129.569 235.697 M198.788 235.758 C 199.647 236.624,200.404 237.333,200.471 237.333 C 200.538 237.333,199.889 236.624,199.030 235.758 C 198.171 234.891,197.414 234.182,197.347 234.182 C 197.281 234.182,197.929 234.891,198.788 235.758 M276.848 236.000 C 277.573 236.733,278.220 237.333,278.286 237.333 C 278.353 237.333,277.815 236.733,277.091 236.000 C 276.367 235.267,275.720 234.667,275.653 234.667 C 275.586 234.667,276.124 235.267,276.848 236.000 M202.049 236.909 L 201.091 237.939 202.121 236.981 C 203.079 236.090,203.263 235.879,203.080 235.879 C 203.040 235.879,202.576 236.342,202.049 236.909 M239.264 238.000 L 237.939 239.394 239.333 238.069 C 240.628 236.838,240.838 236.606,240.658 236.606 C 240.620 236.606,239.993 237.233,239.264 238.000 M162.667 239.152 C 163.526 240.018,164.283 240.727,164.350 240.727 C 164.416 240.727,163.768 240.018,162.909 239.152 C 162.050 238.285,161.293 237.576,161.226 237.576 C 161.159 237.576,161.808 238.285,162.667 239.152 M319.394 239.515 C 320.320 240.448,321.132 241.212,321.199 241.212 C 321.266 241.212,320.563 240.448,319.636 239.515 C 318.710 238.582,317.898 237.818,317.831 237.818 C 317.765 237.818,318.468 238.582,319.394 239.515 M87.266 239.939 L 85.697 241.576 87.333 240.007 C 88.853 238.550,89.081 238.303,88.902 238.303 C 88.865 238.303,88.129 239.039,87.266 239.939 M275.751 240.061 L 274.061 241.818 275.818 240.128 C 277.451 238.558,277.686 238.303,277.509 238.303 C 277.472 238.303,276.681 239.094,275.751 240.061 M124.963 240.545 L 123.273 242.303 125.030 240.613 C 126.663 239.042,126.899 238.788,126.721 238.788 C 126.684 238.788,125.893 239.579,124.963 240.545 M235.386 242.121 L 234.061 243.515 235.455 242.190 C 236.750 240.959,236.960 240.727,236.780 240.727 C 236.742 240.727,236.114 241.355,235.386 242.121 M167.515 243.758 C 168.374 244.624,169.131 245.333,169.198 245.333 C 169.265 245.333,168.617 244.624,167.758 243.758 C 166.899 242.891,166.141 242.182,166.075 242.182 C 166.008 242.182,166.656 242.891,167.515 243.758 M324.242 244.121 C 325.169 245.055,325.981 245.818,326.048 245.818 C 326.114 245.818,325.411 245.055,324.485 244.121 C 323.559 243.188,322.746 242.424,322.680 242.424 C 322.613 242.424,323.316 243.188,324.242 244.121 M82.902 244.545 L 81.333 246.182 82.970 244.613 C 84.490 243.156,84.717 242.909,84.538 242.909 C 84.501 242.909,83.765 243.645,82.902 244.545 M271.145 244.909 L 269.455 246.667 271.212 244.976 C 272.845 243.406,273.080 243.152,272.903 243.152 C 272.866 243.152,272.075 243.942,271.145 244.909 M120.235 245.515 L 118.667 247.152 120.303 245.583 C 121.203 244.720,121.939 243.984,121.939 243.946 C 121.939 243.768,121.693 243.995,120.235 245.515 M231.749 246.000 L 230.424 247.394 231.818 246.069 C 233.113 244.838,233.323 244.606,233.143 244.606 C 233.105 244.606,232.478 245.233,231.749 246.000 M172.364 248.364 C 173.223 249.230,173.980 249.939,174.047 249.939 C 174.113 249.939,173.465 249.230,172.606 248.364 C 171.747 247.497,170.990 246.788,170.923 246.788 C 170.856 246.788,171.505 247.497,172.364 248.364 M328.970 248.606 C 329.829 249.473,330.586 250.182,330.653 250.182 C 330.719 250.182,330.071 249.473,329.212 248.606 C 328.353 247.739,327.596 247.030,327.529 247.030 C 327.462 247.030,328.111 247.739,328.970 248.606 M78.538 249.152 L 76.970 250.788 78.606 249.219 C 80.126 247.762,80.353 247.515,80.175 247.515 C 80.138 247.515,79.401 248.252,78.538 249.152 M266.539 249.758 L 264.848 251.515 266.606 249.825 C 268.238 248.255,268.474 248.000,268.297 248.000 C 268.260 248.000,267.469 248.791,266.539 249.758 M115.629 250.364 L 114.061 252.000 115.697 250.431 C 117.217 248.974,117.444 248.727,117.266 248.727 C 117.229 248.727,116.492 249.464,115.629 250.364 M227.871 250.121 L 226.545 251.515 227.939 250.190 C 229.234 248.959,229.444 248.727,229.264 248.727 C 229.227 248.727,228.599 249.355,227.871 250.121 M177.212 252.970 C 178.071 253.836,178.828 254.545,178.895 254.545 C 178.962 254.545,178.314 253.836,177.455 252.970 C 176.596 252.103,175.838 251.394,175.772 251.394 C 175.705 251.394,176.353 252.103,177.212 252.970 M333.818 253.212 C 334.677 254.079,335.434 254.788,335.501 254.788 C 335.568 254.788,334.920 254.079,334.061 253.212 C 333.202 252.345,332.444 251.636,332.378 251.636 C 332.311 251.636,332.959 252.345,333.818 253.212 M74.175 253.758 L 72.606 255.394 74.242 253.825 C 75.762 252.368,75.990 252.121,75.811 252.121 C 75.774 252.121,75.038 252.858,74.175 253.758 M224.114 254.121 L 222.667 255.636 224.182 254.189 C 225.015 253.394,225.697 252.712,225.697 252.674 C 225.697 252.495,225.458 252.714,224.114 254.121 M261.933 254.606 L 260.242 256.364 262.000 254.673 C 263.632 253.103,263.868 252.848,263.690 252.848 C 263.654 252.848,262.863 253.639,261.933 254.606 M111.023 255.212 L 109.455 256.848 111.091 255.280 C 112.611 253.823,112.838 253.576,112.660 253.576 C 112.622 253.576,111.886 254.312,111.023 255.212 M181.333 256.848 C 181.786 257.315,182.210 257.697,182.277 257.697 C 182.344 257.697,182.028 257.315,181.576 256.848 C 181.123 256.382,180.699 256.000,180.632 256.000 C 180.565 256.000,180.881 256.382,181.333 256.848 M338.667 257.818 C 339.526 258.685,340.283 259.394,340.350 259.394 C 340.416 259.394,339.768 258.685,338.909 257.818 C 338.050 256.952,337.293 256.242,337.226 256.242 C 337.159 256.242,337.808 256.952,338.667 257.818 M69.932 258.242 L 68.485 259.758 70.000 258.311 C 70.833 257.515,71.515 256.833,71.515 256.795 C 71.515 256.616,71.276 256.835,69.932 258.242 M220.355 258.121 L 219.030 259.515 220.424 258.190 C 221.191 257.461,221.818 256.834,221.818 256.796 C 221.818 256.616,221.586 256.826,220.355 258.121 M301.455 259.394 C 302.649 260.594,303.681 261.576,303.747 261.576 C 303.814 261.576,302.891 260.594,301.697 259.394 C 300.503 258.194,299.471 257.212,299.404 257.212 C 299.337 257.212,300.260 258.194,301.455 259.394 M295.751 259.091 L 294.182 260.727 295.818 259.159 C 297.338 257.701,297.565 257.455,297.387 257.455 C 297.350 257.455,296.613 258.191,295.751 259.091 M257.327 259.455 L 255.636 261.212 257.394 259.522 C 259.026 257.952,259.262 257.697,259.084 257.697 C 259.047 257.697,258.257 258.488,257.327 259.455 M180.114 260.061 L 178.545 261.697 180.182 260.128 C 181.702 258.671,181.929 258.424,181.751 258.424 C 181.713 258.424,180.977 259.161,180.114 260.061 M109.333 262.182 C 110.192 263.048,110.950 263.758,111.016 263.758 C 111.083 263.758,110.435 263.048,109.576 262.182 C 108.717 261.315,107.959 260.606,107.893 260.606 C 107.826 260.606,108.474 261.315,109.333 262.182 M68.727 262.061 C 69.384 262.727,69.976 263.273,70.042 263.273 C 70.109 263.273,69.626 262.727,68.970 262.061 C 68.313 261.394,67.721 260.848,67.655 260.848 C 67.588 260.848,68.071 261.394,68.727 262.061 M216.477 262.242 L 215.152 263.636 216.545 262.311 C 217.840 261.080,218.050 260.848,217.871 260.848 C 217.833 260.848,217.205 261.476,216.477 262.242 M343.515 262.424 C 344.374 263.291,345.131 264.000,345.198 264.000 C 345.265 264.000,344.617 263.291,343.758 262.424 C 342.899 261.558,342.141 260.848,342.075 260.848 C 342.008 260.848,342.656 261.558,343.515 262.424 M291.145 263.939 L 289.576 265.576 291.212 264.007 C 292.732 262.550,292.959 262.303,292.781 262.303 C 292.744 262.303,292.007 263.039,291.145 263.939 M252.599 264.424 L 251.030 266.061 252.667 264.492 C 254.187 263.035,254.414 262.788,254.235 262.788 C 254.198 262.788,253.462 263.524,252.599 264.424 M175.508 264.909 L 173.939 266.545 175.576 264.977 C 177.096 263.520,177.323 263.273,177.145 263.273 C 177.107 263.273,176.371 264.009,175.508 264.909 M307.758 265.455 C 308.952 266.655,309.984 267.636,310.050 267.636 C 310.117 267.636,309.194 266.655,308.000 265.455 C 306.806 264.255,305.774 263.273,305.707 263.273 C 305.640 263.273,306.563 264.255,307.758 265.455 M73.212 266.303 C 74.071 267.170,74.828 267.879,74.895 267.879 C 74.962 267.879,74.314 267.170,73.455 266.303 C 72.596 265.436,71.838 264.727,71.772 264.727 C 71.705 264.727,72.353 265.436,73.212 266.303 M212.840 266.121 L 211.515 267.515 212.909 266.190 C 213.676 265.461,214.303 264.834,214.303 264.796 C 214.303 264.616,214.071 264.826,212.840 266.121 M114.182 266.788 C 115.041 267.655,115.798 268.364,115.865 268.364 C 115.931 268.364,115.283 267.655,114.424 266.788 C 113.565 265.921,112.808 265.212,112.741 265.212 C 112.675 265.212,113.323 265.921,114.182 266.788 M348.364 267.030 C 349.223 267.897,349.980 268.606,350.047 268.606 C 350.113 268.606,349.465 267.897,348.606 267.030 C 347.747 266.164,346.990 265.455,346.923 265.455 C 346.856 265.455,347.505 266.164,348.364 267.030 M286.538 268.788 L 284.970 270.424 286.606 268.855 C 288.126 267.398,288.353 267.152,288.175 267.152 C 288.138 267.152,287.401 267.888,286.538 268.788 M247.993 269.273 L 246.424 270.909 248.061 269.340 C 249.581 267.883,249.808 267.636,249.629 267.636 C 249.592 267.636,248.856 268.373,247.993 269.273 M170.902 269.758 L 169.333 271.394 170.970 269.825 C 172.490 268.368,172.717 268.121,172.538 268.121 C 172.501 268.121,171.765 268.858,170.902 269.758 M208.961 270.242 L 207.636 271.636 209.030 270.311 C 210.325 269.080,210.535 268.848,210.355 268.848 C 210.317 268.848,209.690 269.476,208.961 270.242 M78.061 270.909 C 78.920 271.776,79.677 272.485,79.744 272.485 C 79.810 272.485,79.162 271.776,78.303 270.909 C 77.444 270.042,76.687 269.333,76.620 269.333 C 76.553 269.333,77.202 270.042,78.061 270.909 M314.061 271.515 C 315.255 272.715,316.287 273.697,316.354 273.697 C 316.420 273.697,315.497 272.715,314.303 271.515 C 313.109 270.315,312.077 269.333,312.010 269.333 C 311.943 269.333,312.866 270.315,314.061 271.515 M119.030 271.394 C 119.889 272.261,120.647 272.970,120.713 272.970 C 120.780 272.970,120.132 272.261,119.273 271.394 C 118.414 270.527,117.656 269.818,117.590 269.818 C 117.523 269.818,118.171 270.527,119.030 271.394 M353.212 271.636 C 354.071 272.503,354.828 273.212,354.895 273.212 C 354.962 273.212,354.314 272.503,353.455 271.636 C 352.596 270.770,351.838 270.061,351.772 270.061 C 351.705 270.061,352.353 270.770,353.212 271.636 M281.932 273.636 L 280.364 275.273 282.000 273.704 C 283.520 272.247,283.747 272.000,283.569 272.000 C 283.532 272.000,282.795 272.736,281.932 273.636 M243.387 274.121 L 241.818 275.758 243.455 274.189 C 244.974 272.732,245.202 272.485,245.023 272.485 C 244.986 272.485,244.250 273.221,243.387 274.121 M166.296 274.606 L 164.727 276.242 166.364 274.674 C 167.884 273.217,168.111 272.970,167.932 272.970 C 167.895 272.970,167.159 273.706,166.296 274.606 M205.083 274.364 L 203.758 275.758 205.152 274.433 C 205.918 273.704,206.545 273.076,206.545 273.039 C 206.545 272.859,206.314 273.069,205.083 274.364 M82.909 275.515 C 83.768 276.382,84.525 277.091,84.592 277.091 C 84.659 277.091,84.010 276.382,83.152 275.515 C 82.293 274.648,81.535 273.939,81.469 273.939 C 81.402 273.939,82.050 274.648,82.909 275.515 M123.879 276.000 C 124.738 276.867,125.495 277.576,125.562 277.576 C 125.628 277.576,124.980 276.867,124.121 276.000 C 123.262 275.133,122.505 274.424,122.438 274.424 C 122.372 274.424,123.020 275.133,123.879 276.000 M201.446 278.242 L 200.121 279.636 201.515 278.311 C 202.810 277.080,203.020 276.848,202.840 276.848 C 202.802 276.848,202.175 277.476,201.446 278.242 M277.326 278.485 L 275.758 280.121 277.394 278.552 C 278.914 277.095,279.141 276.848,278.963 276.848 C 278.926 276.848,278.189 277.585,277.326 278.485 M238.781 278.970 L 237.212 280.606 238.848 279.037 C 239.748 278.174,240.485 277.438,240.485 277.401 C 240.485 277.223,240.238 277.450,238.781 278.970 M353.939 279.152 C 352.946 280.152,352.188 280.970,352.255 280.970 C 352.321 280.970,353.188 280.152,354.182 279.152 C 355.175 278.152,355.933 277.333,355.867 277.333 C 355.800 277.333,354.933 278.152,353.939 279.152 M315.387 279.212 L 313.818 280.848 315.455 279.280 C 316.974 277.823,317.202 277.576,317.023 277.576 C 316.986 277.576,316.250 278.312,315.387 279.212 M161.690 279.455 L 160.121 281.091 161.758 279.522 C 163.277 278.065,163.505 277.818,163.326 277.818 C 163.289 277.818,162.553 278.555,161.690 279.455 M87.758 280.121 C 88.617 280.988,89.374 281.697,89.441 281.697 C 89.507 281.697,88.859 280.988,88.000 280.121 C 87.141 279.255,86.384 278.545,86.317 278.545 C 86.250 278.545,86.899 279.255,87.758 280.121 M128.727 280.606 C 129.586 281.473,130.344 282.182,130.410 282.182 C 130.477 282.182,129.829 281.473,128.970 280.606 C 128.111 279.739,127.353 279.030,127.287 279.030 C 127.220 279.030,127.868 279.739,128.727 280.606 M197.567 282.364 L 196.242 283.758 197.636 282.433 C 198.931 281.202,199.141 280.970,198.961 280.970 C 198.924 280.970,198.296 281.597,197.567 282.364 M272.720 283.333 L 271.152 284.970 272.788 283.401 C 274.308 281.944,274.535 281.697,274.357 281.697 C 274.319 281.697,273.583 282.433,272.720 283.333 M234.175 283.818 L 232.606 285.455 234.242 283.886 C 235.762 282.429,235.990 282.182,235.811 282.182 C 235.774 282.182,235.038 282.918,234.175 283.818 M310.781 284.061 L 309.212 285.697 310.848 284.128 C 312.368 282.671,312.596 282.424,312.417 282.424 C 312.380 282.424,311.644 283.161,310.781 284.061 M157.084 284.303 L 155.515 285.939 157.152 284.371 C 158.671 282.914,158.899 282.667,158.720 282.667 C 158.683 282.667,157.947 283.403,157.084 284.303 M348.606 284.727 C 347.613 285.727,346.855 286.545,346.921 286.545 C 346.988 286.545,347.855 285.727,348.848 284.727 C 349.842 283.727,350.600 282.909,350.533 282.909 C 350.467 282.909,349.599 283.727,348.606 284.727 M92.606 284.727 C 93.465 285.594,94.222 286.303,94.289 286.303 C 94.356 286.303,93.707 285.594,92.848 284.727 C 91.990 283.861,91.232 283.152,91.166 283.152 C 91.099 283.152,91.747 283.861,92.606 284.727 M133.576 285.212 C 134.435 286.079,135.192 286.788,135.259 286.788 C 135.325 286.788,134.677 286.079,133.818 285.212 C 132.959 284.345,132.202 283.636,132.135 283.636 C 132.069 283.636,132.717 284.345,133.576 285.212 M193.689 286.485 L 192.364 287.879 193.758 286.554 C 195.053 285.323,195.263 285.091,195.083 285.091 C 195.045 285.091,194.417 285.718,193.689 286.485 M268.114 288.182 L 266.545 289.818 268.182 288.249 C 269.702 286.792,269.929 286.545,269.751 286.545 C 269.713 286.545,268.977 287.282,268.114 288.182 M229.569 288.667 L 228.000 290.303 229.636 288.734 C 231.156 287.277,231.384 287.030,231.205 287.030 C 231.168 287.030,230.432 287.767,229.569 288.667 M306.175 288.909 L 304.606 290.545 306.242 288.977 C 307.762 287.520,307.990 287.273,307.811 287.273 C 307.774 287.273,307.038 288.009,306.175 288.909 M152.478 289.152 L 150.909 290.788 152.545 289.219 C 154.065 287.762,154.293 287.515,154.114 287.515 C 154.077 287.515,153.341 288.252,152.478 289.152 M97.455 289.333 C 98.314 290.200,99.071 290.909,99.138 290.909 C 99.204 290.909,98.556 290.200,97.697 289.333 C 96.838 288.467,96.081 287.758,96.014 287.758 C 95.947 287.758,96.596 288.467,97.455 289.333 M138.424 289.818 C 139.283 290.685,140.041 291.394,140.107 291.394 C 140.174 291.394,139.526 290.685,138.667 289.818 C 137.808 288.952,137.050 288.242,136.984 288.242 C 136.917 288.242,137.565 288.952,138.424 289.818 M343.273 290.303 C 342.279 291.303,341.521 292.121,341.588 292.121 C 341.655 292.121,342.522 291.303,343.515 290.303 C 344.508 289.303,345.267 288.485,345.200 288.485 C 345.133 288.485,344.266 289.303,343.273 290.303 M190.052 290.364 L 188.727 291.758 190.121 290.433 C 190.888 289.704,191.515 289.076,191.515 289.039 C 191.515 288.859,191.283 289.069,190.052 290.364 M263.508 293.030 L 261.939 294.667 263.576 293.098 C 265.096 291.641,265.323 291.394,265.145 291.394 C 265.107 291.394,264.371 292.130,263.508 293.030 M224.963 293.515 L 223.394 295.152 225.030 293.583 C 226.550 292.126,226.777 291.879,226.599 291.879 C 226.562 291.879,225.826 292.615,224.963 293.515 M301.569 293.758 L 300.000 295.394 301.636 293.825 C 303.156 292.368,303.384 292.121,303.205 292.121 C 303.168 292.121,302.432 292.858,301.569 293.758 M102.303 293.939 C 103.162 294.806,103.919 295.515,103.986 295.515 C 104.053 295.515,103.404 294.806,102.545 293.939 C 101.686 293.073,100.929 292.364,100.862 292.364 C 100.796 292.364,101.444 293.073,102.303 293.939 M147.872 294.000 L 146.303 295.636 147.939 294.068 C 149.459 292.610,149.687 292.364,149.508 292.364 C 149.471 292.364,148.735 293.100,147.872 294.000 M143.273 294.424 C 144.132 295.291,144.889 296.000,144.956 296.000 C 145.022 296.000,144.374 295.291,143.515 294.424 C 142.656 293.558,141.899 292.848,141.832 292.848 C 141.766 292.848,142.414 293.558,143.273 294.424 M186.174 294.485 L 184.848 295.879 186.242 294.554 C 187.537 293.323,187.747 293.091,187.567 293.091 C 187.530 293.091,186.902 293.718,186.174 294.485 M338.055 295.818 L 336.121 297.818 338.121 295.884 C 339.979 294.089,340.232 293.818,340.055 293.818 C 340.018 293.818,339.118 294.718,338.055 295.818 M223.758 297.333 C 224.482 298.067,225.129 298.667,225.196 298.667 C 225.262 298.667,224.724 298.067,224.000 297.333 C 223.276 296.600,222.629 296.000,222.562 296.000 C 222.495 296.000,223.033 296.600,223.758 297.333 M258.902 297.879 L 257.333 299.515 258.970 297.946 C 260.490 296.489,260.717 296.242,260.538 296.242 C 260.501 296.242,259.765 296.979,258.902 297.879 M107.152 298.545 C 108.010 299.412,108.768 300.121,108.834 300.121 C 108.901 300.121,108.253 299.412,107.394 298.545 C 106.535 297.679,105.778 296.970,105.711 296.970 C 105.644 296.970,106.293 297.679,107.152 298.545 M296.963 298.606 L 295.394 300.242 297.030 298.674 C 298.550 297.217,298.777 296.970,298.599 296.970 C 298.562 296.970,297.826 297.706,296.963 298.606 M182.295 298.606 L 180.970 300.000 182.364 298.675 C 183.130 297.946,183.758 297.319,183.758 297.281 C 183.758 297.101,183.526 297.311,182.295 298.606 M332.722 301.394 L 330.788 303.394 332.788 301.460 C 334.645 299.664,334.898 299.394,334.722 299.394 C 334.685 299.394,333.785 300.294,332.722 301.394 M228.364 301.697 C 229.223 302.564,229.980 303.273,230.047 303.273 C 230.113 303.273,229.465 302.564,228.606 301.697 C 227.747 300.830,226.990 300.121,226.923 300.121 C 226.856 300.121,227.505 300.830,228.364 301.697 M178.658 302.485 L 177.333 303.879 178.727 302.554 C 180.022 301.323,180.232 301.091,180.052 301.091 C 180.014 301.091,179.387 301.718,178.658 302.485 M254.296 302.727 L 252.727 304.364 254.364 302.795 C 255.884 301.338,256.111 301.091,255.932 301.091 C 255.895 301.091,255.159 301.827,254.296 302.727 M112.000 303.152 C 112.859 304.018,113.616 304.727,113.683 304.727 C 113.750 304.727,113.101 304.018,112.242 303.152 C 111.383 302.285,110.626 301.576,110.559 301.576 C 110.493 301.576,111.141 302.285,112.000 303.152 M292.357 303.455 L 290.788 305.091 292.424 303.522 C 293.944 302.065,294.171 301.818,293.993 301.818 C 293.956 301.818,293.219 302.555,292.357 303.455 M233.212 306.303 C 234.071 307.170,234.828 307.879,234.895 307.879 C 234.962 307.879,234.314 307.170,233.455 306.303 C 232.596 305.436,231.838 304.727,231.772 304.727 C 231.705 304.727,232.353 305.436,233.212 306.303 M327.515 306.788 C 326.522 307.788,325.764 308.606,325.830 308.606 C 325.897 308.606,326.764 307.788,327.758 306.788 C 328.751 305.788,329.509 304.970,329.442 304.970 C 329.376 304.970,328.508 305.788,327.515 306.788 M174.780 306.606 L 173.455 308.000 174.848 306.675 C 175.615 305.946,176.242 305.319,176.242 305.281 C 176.242 305.101,176.011 305.311,174.780 306.606 M249.690 307.576 L 248.121 309.212 249.758 307.643 C 251.277 306.186,251.505 305.939,251.326 305.939 C 251.289 305.939,250.553 306.676,249.690 307.576 M116.848 307.758 C 117.707 308.624,118.465 309.333,118.531 309.333 C 118.598 309.333,117.950 308.624,117.091 307.758 C 116.232 306.891,115.475 306.182,115.408 306.182 C 115.341 306.182,115.990 306.891,116.848 307.758 M287.751 308.303 L 286.182 309.939 287.818 308.371 C 289.338 306.914,289.565 306.667,289.387 306.667 C 289.350 306.667,288.613 307.403,287.751 308.303 M171.143 310.485 L 169.818 311.879 171.212 310.554 C 172.507 309.323,172.717 309.091,172.537 309.091 C 172.499 309.091,171.872 309.718,171.143 310.485 M238.061 310.909 C 238.920 311.776,239.677 312.485,239.744 312.485 C 239.810 312.485,239.162 311.776,238.303 310.909 C 237.444 310.042,236.687 309.333,236.620 309.333 C 236.553 309.333,237.202 310.042,238.061 310.909 M322.182 312.364 C 321.188 313.364,320.430 314.182,320.497 314.182 C 320.564 314.182,321.431 313.364,322.424 312.364 C 323.418 311.364,324.176 310.545,324.109 310.545 C 324.042 310.545,323.175 311.364,322.182 312.364 M121.697 312.364 C 122.556 313.230,123.313 313.939,123.380 313.939 C 123.447 313.939,122.798 313.230,121.939 312.364 C 121.080 311.497,120.323 310.788,120.256 310.788 C 120.190 310.788,120.838 311.497,121.697 312.364 M245.084 312.424 L 243.515 314.061 245.152 312.492 C 246.671 311.035,246.899 310.788,246.720 310.788 C 246.683 310.788,245.947 311.524,245.084 312.424 M283.145 313.152 L 281.576 314.788 283.212 313.219 C 284.732 311.762,284.959 311.515,284.781 311.515 C 284.744 311.515,284.007 312.252,283.145 313.152 M167.264 314.606 L 165.939 316.000 167.333 314.675 C 168.100 313.946,168.727 313.319,168.727 313.281 C 168.727 313.101,168.495 313.311,167.264 314.606 M126.545 316.970 C 127.404 317.836,128.162 318.545,128.228 318.545 C 128.295 318.545,127.647 317.836,126.788 316.970 C 125.929 316.103,125.172 315.394,125.105 315.394 C 125.038 315.394,125.686 316.103,126.545 316.970 M316.848 317.939 C 315.855 318.939,315.097 319.758,315.164 319.758 C 315.230 319.758,316.098 318.939,317.091 317.939 C 318.084 316.939,318.842 316.121,318.776 316.121 C 318.709 316.121,317.842 316.939,316.848 317.939 M278.538 318.000 L 276.970 319.636 278.606 318.068 C 280.126 316.610,280.353 316.364,280.175 316.364 C 280.138 316.364,279.401 317.100,278.538 318.000 M163.386 318.727 L 162.061 320.121 163.455 318.796 C 164.221 318.067,164.848 317.440,164.848 317.402 C 164.848 317.222,164.617 317.432,163.386 318.727 M131.394 321.576 C 132.253 322.442,133.010 323.152,133.077 323.152 C 133.144 323.152,132.495 322.442,131.636 321.576 C 130.777 320.709,130.020 320.000,129.953 320.000 C 129.887 320.000,130.535 320.709,131.394 321.576 M159.749 322.606 L 158.424 324.000 159.818 322.675 C 160.585 321.946,161.212 321.319,161.212 321.281 C 161.212 321.101,160.980 321.311,159.749 322.606 M273.932 322.848 L 272.364 324.485 274.000 322.916 C 275.520 321.459,275.747 321.212,275.569 321.212 C 275.532 321.212,274.795 321.948,273.932 322.848 M311.515 323.515 C 310.522 324.515,309.764 325.333,309.830 325.333 C 309.897 325.333,310.764 324.515,311.758 323.515 C 312.751 322.515,313.509 321.697,313.442 321.697 C 313.376 321.697,312.508 322.515,311.515 323.515 M136.242 326.182 C 137.101 327.048,137.859 327.758,137.925 327.758 C 137.992 327.758,137.344 327.048,136.485 326.182 C 135.626 325.315,134.869 324.606,134.802 324.606 C 134.735 324.606,135.383 325.315,136.242 326.182 M155.871 326.727 L 154.545 328.121 155.939 326.796 C 156.706 326.067,157.333 325.440,157.333 325.402 C 157.333 325.222,157.102 325.432,155.871 326.727 M269.326 327.697 L 267.758 329.333 269.394 327.765 C 270.914 326.307,271.141 326.061,270.963 326.061 C 270.926 326.061,270.189 326.797,269.326 327.697 M306.182 329.091 C 305.188 330.091,304.430 330.909,304.497 330.909 C 304.564 330.909,305.431 330.091,306.424 329.091 C 307.418 328.091,308.176 327.273,308.109 327.273 C 308.042 327.273,307.175 328.091,306.182 329.091 M141.091 330.788 C 141.950 331.655,142.707 332.364,142.774 332.364 C 142.841 332.364,142.192 331.655,141.333 330.788 C 140.474 329.921,139.717 329.212,139.650 329.212 C 139.584 329.212,140.232 329.921,141.091 330.788 M151.992 330.848 L 150.667 332.242 152.061 330.917 C 152.827 330.189,153.455 329.561,153.455 329.523 C 153.455 329.343,153.223 329.553,151.992 330.848 M264.720 332.545 L 263.152 334.182 264.788 332.613 C 266.308 331.156,266.535 330.909,266.357 330.909 C 266.319 330.909,265.583 331.645,264.720 332.545 M300.964 334.606 L 299.030 336.606 301.030 334.672 C 302.888 332.876,303.141 332.606,302.964 332.606 C 302.928 332.606,302.028 333.506,300.964 334.606 M148.304 334.721 L 146.916 336.109 145.640 334.906 L 144.364 333.703 145.637 335.031 L 146.910 336.358 148.422 334.846 C 149.254 334.014,149.880 333.333,149.813 333.333 C 149.746 333.333,149.067 333.958,148.304 334.721 M267.030 338.667 C 267.956 339.600,268.769 340.364,268.835 340.364 C 268.902 340.364,268.199 339.600,267.273 338.667 C 266.347 337.733,265.534 336.970,265.468 336.970 C 265.401 336.970,266.104 337.733,267.030 338.667 M295.631 340.182 L 293.697 342.182 295.697 340.248 C 297.555 338.452,297.807 338.182,297.631 338.182 C 297.594 338.182,296.694 339.082,295.631 340.182 M271.879 343.273 C 272.805 344.206,273.617 344.970,273.684 344.970 C 273.751 344.970,273.047 344.206,272.121 343.273 C 271.195 342.339,270.383 341.576,270.316 341.576 C 270.249 341.576,270.953 342.339,271.879 343.273 M290.297 345.758 L 288.364 347.758 290.364 345.824 C 292.221 344.028,292.474 343.758,292.297 343.758 C 292.261 343.758,291.361 344.658,290.297 345.758 M276.727 347.879 C 277.653 348.812,278.466 349.576,278.532 349.576 C 278.599 349.576,277.896 348.812,276.970 347.879 C 276.044 346.945,275.231 346.182,275.165 346.182 C 275.098 346.182,275.801 346.945,276.727 347.879 M285.091 351.152 C 284.098 352.152,283.339 352.970,283.406 352.970 C 283.473 352.970,284.340 352.152,285.333 351.152 C 286.327 350.152,287.085 349.333,287.018 349.333 C 286.952 349.333,286.084 350.152,285.091 351.152 M281.212 352.121 C 281.936 352.855,282.583 353.455,282.650 353.455 C 282.717 353.455,282.179 352.855,281.455 352.121 C 280.730 351.388,280.083 350.788,280.017 350.788 C 279.950 350.788,280.488 351.388,281.212 352.121 " stroke="none" fill="#d4d4d4" fill-rule="evenodd"></path><path id="path2" d="M262.485 60.777 C 262.785 60.835,263.276 60.835,263.576 60.777 C 263.876 60.719,263.630 60.672,263.030 60.672 C 262.430 60.672,262.185 60.719,262.485 60.777 M276.662 74.424 C 276.662 74.891,276.712 75.082,276.773 74.848 C 276.834 74.615,276.834 74.233,276.773 74.000 C 276.712 73.767,276.662 73.958,276.662 74.424 M298.037 256.522 C 297.927 256.701,297.971 256.736,298.160 256.620 C 298.326 256.517,298.686 256.633,298.985 256.885 L 299.515 257.333 299.053 256.788 C 298.535 256.176,298.291 256.112,298.037 256.522 " stroke="none" fill="#848c8c" fill-rule="evenodd"></path><path id="path3" d="M114.773 49.030 L 114.061 49.818 114.848 49.106 C 115.583 48.442,115.748 48.242,115.561 48.242 C 115.519 48.242,115.164 48.597,114.773 49.030 M121.939 50.788 C 122.392 51.255,122.816 51.636,122.883 51.636 C 122.950 51.636,122.634 51.255,122.182 50.788 C 121.730 50.321,121.305 49.939,121.238 49.939 C 121.172 49.939,121.487 50.321,121.939 50.788 M110.167 53.879 L 109.455 54.667 110.242 53.955 C 110.676 53.563,111.030 53.208,111.030 53.167 C 111.030 52.979,110.830 53.144,110.167 53.879 M126.788 55.349 C 126.788 55.390,127.142 55.745,127.576 56.136 L 128.364 56.848 127.652 56.061 C 126.988 55.326,126.788 55.161,126.788 55.349 M105.318 58.970 L 104.606 59.758 105.394 59.046 C 106.128 58.382,106.293 58.182,106.106 58.182 C 106.064 58.182,105.710 58.536,105.318 58.970 M132.848 61.212 C 133.301 61.679,133.725 62.061,133.792 62.061 C 133.859 62.061,133.543 61.679,133.091 61.212 C 132.639 60.745,132.214 60.364,132.147 60.364 C 132.081 60.364,132.396 60.745,132.848 61.212 M100.712 63.818 L 100.000 64.606 100.788 63.894 C 101.221 63.502,101.576 63.148,101.576 63.106 C 101.576 62.919,101.376 63.084,100.712 63.818 M137.697 65.773 C 137.697 65.815,138.052 66.169,138.485 66.561 L 139.273 67.273 138.561 66.485 C 137.897 65.750,137.697 65.586,137.697 65.773 M251.257 66.970 L 250.545 67.758 251.333 67.046 C 252.068 66.382,252.233 66.182,252.045 66.182 C 252.004 66.182,251.649 66.536,251.257 66.970 M95.864 68.909 L 95.152 69.697 95.939 68.985 C 96.373 68.593,96.727 68.239,96.727 68.197 C 96.727 68.010,96.527 68.175,95.864 68.909 M143.758 71.636 C 144.210 72.103,144.635 72.485,144.701 72.485 C 144.768 72.485,144.452 72.103,144.000 71.636 C 143.548 71.170,143.123 70.788,143.056 70.788 C 142.990 70.788,143.305 71.170,143.758 71.636 M246.894 71.576 L 246.182 72.364 246.970 71.652 C 247.403 71.260,247.758 70.905,247.758 70.864 C 247.758 70.676,247.558 70.841,246.894 71.576 M91.257 73.758 L 90.545 74.545 91.333 73.833 C 91.767 73.442,92.121 73.087,92.121 73.046 C 92.121 72.858,91.921 73.023,91.257 73.758 M242.530 76.182 L 241.818 76.970 242.606 76.258 C 243.039 75.866,243.394 75.512,243.394 75.470 C 243.394 75.283,243.194 75.447,242.530 76.182 M148.606 76.197 C 148.606 76.239,148.961 76.593,149.394 76.985 L 150.182 77.697 149.470 76.909 C 148.806 76.175,148.606 76.010,148.606 76.197 M86.409 78.848 L 85.697 79.636 86.485 78.924 C 87.219 78.261,87.384 78.061,87.197 78.061 C 87.155 78.061,86.801 78.415,86.409 78.848 M154.667 82.061 C 155.119 82.527,155.544 82.909,155.610 82.909 C 155.677 82.909,155.361 82.527,154.909 82.061 C 154.457 81.594,154.032 81.212,153.965 81.212 C 153.899 81.212,154.214 81.594,154.667 82.061 M81.803 83.697 L 81.091 84.485 81.879 83.773 C 82.312 83.381,82.667 83.027,82.667 82.985 C 82.667 82.798,82.467 82.963,81.803 83.697 M120.000 86.667 C 120.452 87.133,120.877 87.515,120.944 87.515 C 121.010 87.515,120.695 87.133,120.242 86.667 C 119.790 86.200,119.365 85.818,119.299 85.818 C 119.232 85.818,119.548 86.200,120.000 86.667 M159.515 86.621 C 159.515 86.663,159.870 87.018,160.303 87.409 L 161.091 88.121 160.379 87.333 C 159.715 86.599,159.515 86.434,159.515 86.621 M76.954 88.788 L 76.242 89.576 77.030 88.864 C 77.464 88.472,77.818 88.118,77.818 88.076 C 77.818 87.889,77.618 88.053,76.954 88.788 M113.318 90.242 L 112.606 91.030 113.394 90.318 C 113.827 89.927,114.182 89.572,114.182 89.530 C 114.182 89.343,113.982 89.508,113.318 90.242 M124.606 90.985 C 124.606 91.027,124.961 91.381,125.394 91.773 L 126.182 92.485 125.470 91.697 C 124.806 90.963,124.606 90.798,124.606 90.985 M165.576 92.485 C 166.028 92.952,166.453 93.333,166.519 93.333 C 166.586 93.333,166.270 92.952,165.818 92.485 C 165.366 92.018,164.941 91.636,164.875 91.636 C 164.808 91.636,165.123 92.018,165.576 92.485 M72.348 93.636 L 71.636 94.424 72.424 93.712 C 72.858 93.321,73.212 92.966,73.212 92.924 C 73.212 92.737,73.012 92.902,72.348 93.636 M108.470 95.333 L 107.758 96.121 108.545 95.409 C 109.280 94.745,109.445 94.545,109.257 94.545 C 109.216 94.545,108.861 94.900,108.470 95.333 M129.697 95.833 C 129.697 95.875,130.052 96.230,130.485 96.621 L 131.273 97.333 130.561 96.545 C 129.897 95.811,129.697 95.646,129.697 95.833 M170.424 97.046 C 170.424 97.087,170.779 97.442,171.212 97.833 L 172.000 98.545 171.288 97.758 C 170.624 97.023,170.424 96.858,170.424 97.046 M67.500 98.727 L 66.788 99.515 67.576 98.803 C 68.009 98.412,68.364 98.057,68.364 98.015 C 68.364 97.828,68.164 97.993,67.500 98.727 M103.864 100.182 L 103.152 100.970 103.939 100.258 C 104.674 99.594,104.839 99.394,104.651 99.394 C 104.610 99.394,104.255 99.748,103.864 100.182 M134.788 100.682 C 134.788 100.724,135.142 101.078,135.576 101.470 L 136.364 102.182 135.652 101.394 C 134.988 100.660,134.788 100.495,134.788 100.682 M176.485 102.909 C 176.937 103.376,177.362 103.758,177.428 103.758 C 177.495 103.758,177.180 103.376,176.727 102.909 C 176.275 102.442,175.850 102.061,175.784 102.061 C 175.717 102.061,176.033 102.442,176.485 102.909 M62.894 103.576 L 62.182 104.364 62.970 103.652 C 63.403 103.260,63.758 102.905,63.758 102.864 C 63.758 102.676,63.558 102.841,62.894 103.576 M99.015 105.273 L 98.303 106.061 99.091 105.349 C 99.825 104.685,99.990 104.485,99.803 104.485 C 99.761 104.485,99.407 104.839,99.015 105.273 M181.333 107.470 C 181.333 107.512,181.688 107.866,182.121 108.258 L 182.909 108.970 182.197 108.182 C 181.533 107.447,181.333 107.283,181.333 107.470 M212.227 108.182 L 211.515 108.970 212.303 108.258 C 212.736 107.866,213.091 107.512,213.091 107.470 C 213.091 107.283,212.891 107.447,212.227 108.182 M255.942 107.808 C 256.244 107.866,256.680 107.864,256.912 107.803 C 257.144 107.742,256.897 107.695,256.364 107.697 C 255.830 107.700,255.641 107.750,255.942 107.808 M58.045 108.667 L 57.333 109.455 58.121 108.743 C 58.555 108.351,58.909 107.996,58.909 107.955 C 58.909 107.767,58.709 107.932,58.045 108.667 M134.409 109.152 L 133.697 109.939 134.485 109.227 C 134.918 108.836,135.273 108.481,135.273 108.439 C 135.273 108.252,135.073 108.417,134.409 109.152 M94.409 110.121 L 93.697 110.909 94.485 110.197 C 95.219 109.533,95.384 109.333,95.197 109.333 C 95.155 109.333,94.801 109.688,94.409 110.121 M207.864 112.788 L 207.152 113.576 207.939 112.864 C 208.373 112.472,208.727 112.118,208.727 112.076 C 208.727 111.889,208.527 112.053,207.864 112.788 M187.394 113.333 C 187.846 113.800,188.271 114.182,188.338 114.182 C 188.404 114.182,188.089 113.800,187.636 113.333 C 187.184 112.867,186.759 112.485,186.693 112.485 C 186.626 112.485,186.942 112.867,187.394 113.333 M53.197 113.758 L 52.485 114.545 53.273 113.833 C 53.706 113.442,54.061 113.087,54.061 113.046 C 54.061 112.858,53.861 113.023,53.197 113.758 M129.803 114.000 L 129.091 114.788 129.879 114.076 C 130.312 113.684,130.667 113.330,130.667 113.288 C 130.667 113.101,130.467 113.266,129.803 114.000 M89.561 115.212 L 88.848 116.000 89.636 115.288 C 90.070 114.896,90.424 114.542,90.424 114.500 C 90.424 114.313,90.224 114.478,89.561 115.212 M203.500 117.394 L 202.788 118.182 203.576 117.470 C 204.009 117.078,204.364 116.724,204.364 116.682 C 204.364 116.495,204.164 116.660,203.500 117.394 M48.591 118.606 L 47.879 119.394 48.667 118.682 C 49.100 118.290,49.455 117.936,49.455 117.894 C 49.455 117.707,49.255 117.872,48.591 118.606 M192.242 117.894 C 192.242 117.936,192.597 118.290,193.030 118.682 L 193.818 119.394 193.106 118.606 C 192.442 117.872,192.242 117.707,192.242 117.894 M124.954 119.091 L 124.242 119.879 125.030 119.167 C 125.464 118.775,125.818 118.421,125.818 118.379 C 125.818 118.192,125.618 118.356,124.954 119.091 M84.954 120.061 L 84.242 120.848 85.030 120.136 C 85.464 119.745,85.818 119.390,85.818 119.349 C 85.818 119.161,85.618 119.326,84.954 120.061 M270.122 121.576 C 270.124 122.109,270.174 122.299,270.232 121.997 C 270.290 121.696,270.288 121.259,270.227 121.027 C 270.166 120.796,270.119 121.042,270.122 121.576 M199.136 122.000 L 198.424 122.788 199.212 122.076 C 199.645 121.684,200.000 121.330,200.000 121.288 C 200.000 121.101,199.800 121.266,199.136 122.000 M43.742 123.697 L 43.030 124.485 43.818 123.773 C 44.252 123.381,44.606 123.027,44.606 122.985 C 44.606 122.798,44.406 122.963,43.742 123.697 M120.348 123.939 L 119.636 124.727 120.424 124.015 C 120.858 123.624,121.212 123.269,121.212 123.227 C 121.212 123.040,121.012 123.205,120.348 123.939 M80.106 125.152 L 79.394 125.939 80.182 125.227 C 80.916 124.564,81.081 124.364,80.894 124.364 C 80.852 124.364,80.498 124.718,80.106 125.152 M156.712 125.394 L 156.000 126.182 156.788 125.470 C 157.221 125.078,157.576 124.724,157.576 124.682 C 157.576 124.495,157.376 124.660,156.712 125.394 M161.091 125.818 C 161.612 126.352,162.092 126.788,162.159 126.788 C 162.226 126.788,161.854 126.352,161.333 125.818 C 160.813 125.285,160.332 124.848,160.265 124.848 C 160.199 124.848,160.570 125.285,161.091 125.818 M115.500 129.030 L 114.788 129.818 115.576 129.106 C 116.310 128.442,116.475 128.242,116.288 128.242 C 116.246 128.242,115.892 128.597,115.500 129.030 M46.545 128.561 C 46.545 128.602,46.900 128.957,47.333 129.349 L 48.121 130.061 47.409 129.273 C 46.745 128.538,46.545 128.373,46.545 128.561 M75.500 130.000 L 74.788 130.788 75.576 130.076 C 76.310 129.412,76.475 129.212,76.288 129.212 C 76.246 129.212,75.892 129.567,75.500 130.000 M151.864 130.485 L 151.152 131.273 151.939 130.561 C 152.373 130.169,152.727 129.815,152.727 129.773 C 152.727 129.586,152.527 129.750,151.864 130.485 M168.121 132.606 C 168.642 133.139,169.123 133.576,169.189 133.576 C 169.256 133.576,168.884 133.139,168.364 132.606 C 167.843 132.073,167.362 131.636,167.296 131.636 C 167.229 131.636,167.600 132.073,168.121 132.606 M110.894 133.879 L 110.182 134.667 110.970 133.955 C 111.704 133.291,111.869 133.091,111.682 133.091 C 111.640 133.091,111.285 133.445,110.894 133.879 M51.636 133.409 C 51.636 133.451,51.991 133.805,52.424 134.197 L 53.212 134.909 52.500 134.121 C 51.836 133.387,51.636 133.222,51.636 133.409 M70.651 135.091 L 69.939 135.879 70.727 135.167 C 71.462 134.503,71.627 134.303,71.439 134.303 C 71.398 134.303,71.043 134.658,70.651 135.091 M147.257 135.333 L 146.545 136.121 147.333 135.409 C 147.767 135.018,148.121 134.663,148.121 134.621 C 148.121 134.434,147.921 134.599,147.257 135.333 M56.485 138.015 C 56.485 138.057,56.839 138.412,57.273 138.803 L 58.061 139.515 57.349 138.727 C 56.685 137.993,56.485 137.828,56.485 138.015 M106.045 138.970 L 105.333 139.758 106.121 139.046 C 106.555 138.654,106.909 138.299,106.909 138.258 C 106.909 138.070,106.709 138.235,106.045 138.970 M175.263 139.455 C 175.857 140.088,176.375 140.606,176.414 140.606 C 176.596 140.606,176.404 140.388,175.333 139.384 L 174.182 138.303 175.263 139.455 M66.045 139.939 L 65.333 140.727 66.121 140.015 C 66.856 139.352,67.021 139.152,66.833 139.152 C 66.792 139.152,66.437 139.506,66.045 139.939 M142.409 140.424 L 141.697 141.212 142.485 140.500 C 142.918 140.108,143.273 139.754,143.273 139.712 C 143.273 139.525,143.073 139.690,142.409 140.424 M101.439 143.818 L 100.727 144.606 101.515 143.894 C 102.250 143.230,102.414 143.030,102.227 143.030 C 102.185 143.030,101.831 143.385,101.439 143.818 M96.591 148.909 L 95.879 149.697 96.667 148.985 C 97.401 148.321,97.566 148.121,97.379 148.121 C 97.337 148.121,96.982 148.476,96.591 148.909 M132.954 150.364 L 132.242 151.152 133.030 150.439 C 133.464 150.048,133.818 149.693,133.818 149.652 C 133.818 149.464,133.618 149.629,132.954 150.364 M168.833 154.000 L 168.121 154.788 168.909 154.076 C 169.342 153.684,169.697 153.330,169.697 153.288 C 169.697 153.101,169.497 153.266,168.833 154.000 M128.106 155.455 L 127.394 156.242 128.182 155.530 C 128.615 155.139,128.970 154.784,128.970 154.743 C 128.970 154.555,128.770 154.720,128.106 155.455 M164.470 158.606 L 163.758 159.394 164.545 158.682 C 164.979 158.290,165.333 157.936,165.333 157.894 C 165.333 157.707,165.133 157.872,164.470 158.606 M87.136 158.848 L 86.424 159.636 87.212 158.924 C 87.947 158.261,88.111 158.061,87.924 158.061 C 87.882 158.061,87.528 158.415,87.136 158.848 M123.500 160.303 L 122.788 161.091 123.576 160.379 C 124.009 159.987,124.364 159.633,124.364 159.591 C 124.364 159.404,124.164 159.569,123.500 160.303 M160.106 163.212 L 159.394 164.000 160.182 163.288 C 160.615 162.896,160.970 162.542,160.970 162.500 C 160.970 162.313,160.770 162.478,160.106 163.212 M199.515 162.500 C 199.515 162.542,199.870 162.896,200.303 163.288 L 201.091 164.000 200.379 163.212 C 199.715 162.478,199.515 162.313,199.515 162.500 M197.924 163.455 L 197.212 164.242 198.000 163.530 C 198.433 163.139,198.788 162.784,198.788 162.743 C 198.788 162.555,198.588 162.720,197.924 163.455 M118.651 165.394 L 117.939 166.182 118.727 165.470 C 119.462 164.806,119.627 164.606,119.439 164.606 C 119.398 164.606,119.043 164.961,118.651 165.394 M87.030 167.106 C 87.030 167.148,87.385 167.502,87.818 167.894 L 88.606 168.606 87.894 167.818 C 87.230 167.084,87.030 166.919,87.030 167.106 M155.742 167.818 L 155.030 168.606 155.818 167.894 C 156.252 167.502,156.606 167.148,156.606 167.106 C 156.606 166.919,156.406 167.084,155.742 167.818 M204.364 167.106 C 204.364 167.148,204.718 167.502,205.152 167.894 L 205.939 168.606 205.227 167.818 C 204.564 167.084,204.364 166.919,204.364 167.106 M193.318 168.303 L 192.606 169.091 193.394 168.379 C 193.827 167.987,194.182 167.633,194.182 167.591 C 194.182 167.404,193.982 167.569,193.318 168.303 M114.045 170.242 L 113.333 171.030 114.121 170.318 C 114.856 169.655,115.021 169.455,114.833 169.455 C 114.792 169.455,114.437 169.809,114.045 170.242 M91.879 171.712 C 91.879 171.754,92.233 172.108,92.667 172.500 L 93.455 173.212 92.743 172.424 C 92.079 171.690,91.879 171.525,91.879 171.712 M151.379 172.424 L 150.667 173.212 151.455 172.500 C 151.888 172.108,152.242 171.754,152.242 171.712 C 152.242 171.525,152.042 171.690,151.379 172.424 M209.212 171.712 C 209.212 171.754,209.567 172.108,210.000 172.500 L 210.788 173.212 210.076 172.424 C 209.412 171.690,209.212 171.525,209.212 171.712 M188.712 173.152 L 188.000 173.939 188.788 173.227 C 189.221 172.836,189.576 172.481,189.576 172.439 C 189.576 172.252,189.376 172.417,188.712 173.152 M109.197 175.333 L 108.485 176.121 109.273 175.409 C 110.007 174.745,110.172 174.545,109.985 174.545 C 109.943 174.545,109.588 174.900,109.197 175.333 M214.061 176.318 C 214.061 176.360,214.415 176.715,214.848 177.106 L 215.636 177.818 214.924 177.030 C 214.261 176.296,214.061 176.131,214.061 176.318 M96.970 176.561 C 96.970 176.602,97.324 176.957,97.758 177.349 L 98.545 178.061 97.833 177.273 C 97.170 176.538,96.970 176.373,96.970 176.561 M184.106 178.000 L 183.394 178.788 184.182 178.076 C 184.615 177.684,184.970 177.330,184.970 177.288 C 184.970 177.101,184.770 177.266,184.106 178.000 M104.591 180.182 L 103.879 180.970 104.667 180.258 C 105.401 179.594,105.566 179.394,105.379 179.394 C 105.337 179.394,104.982 179.748,104.591 180.182 M218.909 180.924 C 218.909 180.966,219.264 181.321,219.697 181.712 L 220.485 182.424 219.773 181.636 C 219.109 180.902,218.909 180.737,218.909 180.924 M179.500 182.848 L 178.788 183.636 179.576 182.924 C 180.009 182.533,180.364 182.178,180.364 182.136 C 180.364 181.949,180.164 182.114,179.500 182.848 M223.758 185.530 C 223.758 185.572,224.112 185.927,224.545 186.318 L 225.333 187.030 224.621 186.242 C 223.958 185.508,223.758 185.343,223.758 185.530 M174.894 187.697 L 174.182 188.485 174.970 187.773 C 175.403 187.381,175.758 187.027,175.758 186.985 C 175.758 186.798,175.558 186.963,174.894 187.697 M228.606 190.136 C 228.606 190.178,228.961 190.533,229.394 190.924 L 230.182 191.636 229.470 190.848 C 228.806 190.114,228.606 189.949,228.606 190.136 M237.197 200.061 L 236.485 200.848 237.273 200.136 C 237.706 199.745,238.061 199.390,238.061 199.349 C 238.061 199.161,237.861 199.326,237.197 200.061 M278.788 201.046 C 278.788 201.087,279.142 201.442,279.576 201.833 L 280.364 202.545 279.652 201.758 C 278.988 201.023,278.788 200.858,278.788 201.046 M162.909 201.773 C 162.909 201.815,163.264 202.169,163.697 202.561 L 164.485 203.273 163.773 202.485 C 163.109 201.750,162.909 201.586,162.909 201.773 M121.076 204.424 L 120.364 205.212 121.152 204.500 C 121.886 203.836,122.051 203.636,121.864 203.636 C 121.822 203.636,121.467 203.991,121.076 204.424 M232.591 204.909 L 231.879 205.697 232.667 204.985 C 233.100 204.593,233.455 204.239,233.455 204.197 C 233.455 204.010,233.255 204.175,232.591 204.909 M283.636 205.652 C 283.636 205.693,283.991 206.048,284.424 206.439 L 285.212 207.152 284.500 206.364 C 283.836 205.629,283.636 205.464,283.636 205.652 M167.758 206.379 C 167.758 206.421,168.112 206.775,168.545 207.167 L 169.333 207.879 168.621 207.091 C 167.958 206.356,167.758 206.192,167.758 206.379 M116.712 209.030 L 116.000 209.818 116.788 209.106 C 117.522 208.442,117.687 208.242,117.500 208.242 C 117.458 208.242,117.104 208.597,116.712 209.030 M227.985 209.758 L 227.273 210.545 228.061 209.833 C 228.494 209.442,228.848 209.087,228.848 209.046 C 228.848 208.858,228.648 209.023,227.985 209.758 M288.485 210.258 C 288.485 210.299,288.839 210.654,289.273 211.046 L 290.061 211.758 289.349 210.970 C 288.685 210.235,288.485 210.070,288.485 210.258 M172.606 210.985 C 172.606 211.027,172.961 211.381,173.394 211.773 L 174.182 212.485 173.470 211.697 C 172.806 210.963,172.606 210.798,172.606 210.985 M112.348 213.636 L 111.636 214.424 112.424 213.712 C 113.159 213.049,113.324 212.848,113.136 212.848 C 113.095 212.848,112.740 213.203,112.348 213.636 M223.379 214.606 L 222.667 215.394 223.455 214.682 C 223.888 214.290,224.242 213.936,224.242 213.894 C 224.242 213.707,224.042 213.872,223.379 214.606 M293.333 214.864 C 293.333 214.905,293.688 215.260,294.121 215.652 L 294.909 216.364 294.197 215.576 C 293.533 214.841,293.333 214.676,293.333 214.864 M177.455 215.591 C 177.455 215.633,177.809 215.987,178.242 216.379 L 179.030 217.091 178.318 216.303 C 177.655 215.569,177.455 215.404,177.455 215.591 M107.985 218.242 L 107.273 219.030 108.061 218.318 C 108.795 217.655,108.960 217.455,108.773 217.455 C 108.731 217.455,108.376 217.809,107.985 218.242 M218.773 219.455 L 218.061 220.242 218.848 219.530 C 219.282 219.139,219.636 218.784,219.636 218.743 C 219.636 218.555,219.436 218.720,218.773 219.455 M298.182 219.470 C 298.182 219.512,298.536 219.866,298.970 220.258 L 299.758 220.970 299.046 220.182 C 298.382 219.447,298.182 219.283,298.182 219.470 M182.303 220.197 C 182.303 220.239,182.658 220.593,183.091 220.985 L 183.879 221.697 183.167 220.909 C 182.503 220.175,182.303 220.010,182.303 220.197 M144.000 221.167 C 144.000 221.208,144.355 221.563,144.788 221.955 L 145.576 222.667 144.864 221.879 C 144.200 221.144,144.000 220.979,144.000 221.167 M214.167 224.303 L 213.455 225.091 214.242 224.379 C 214.676 223.987,215.030 223.633,215.030 223.591 C 215.030 223.404,214.830 223.569,214.167 224.303 M139.742 224.788 L 139.030 225.576 139.818 224.864 C 140.252 224.472,140.606 224.118,140.606 224.076 C 140.606 223.889,140.406 224.053,139.742 224.788 M303.030 224.076 C 303.030 224.118,303.385 224.472,303.818 224.864 L 304.606 225.576 303.894 224.788 C 303.230 224.053,303.030 223.889,303.030 224.076 M187.152 224.803 C 187.152 224.845,187.506 225.199,187.939 225.591 L 188.727 226.303 188.015 225.515 C 187.352 224.781,187.152 224.616,187.152 224.803 M148.848 225.773 C 148.848 225.815,149.203 226.169,149.636 226.561 L 150.424 227.273 149.712 226.485 C 149.049 225.750,148.848 225.586,148.848 225.773 M209.561 229.152 L 208.848 229.939 209.636 229.227 C 210.070 228.836,210.424 228.481,210.424 228.439 C 210.424 228.252,210.224 228.417,209.561 229.152 M307.879 228.682 C 307.879 228.724,308.233 229.078,308.667 229.470 L 309.455 230.182 308.743 229.394 C 308.079 228.660,307.879 228.495,307.879 228.682 M135.136 229.636 L 134.424 230.424 135.212 229.712 C 135.645 229.321,136.000 228.966,136.000 228.924 C 136.000 228.737,135.800 228.902,135.136 229.636 M192.000 229.409 C 192.000 229.451,192.355 229.805,192.788 230.197 L 193.576 230.909 192.864 230.121 C 192.200 229.387,192.000 229.222,192.000 229.409 M153.697 230.379 C 153.697 230.421,154.052 230.775,154.485 231.167 L 155.273 231.879 154.561 231.091 C 153.897 230.356,153.697 230.192,153.697 230.379 M204.954 234.000 L 204.242 234.788 205.030 234.076 C 205.464 233.684,205.818 233.330,205.818 233.288 C 205.818 233.101,205.618 233.266,204.954 234.000 M312.727 233.288 C 312.727 233.330,313.082 233.684,313.515 234.076 L 314.303 234.788 313.591 234.000 C 312.927 233.266,312.727 233.101,312.727 233.288 M130.530 234.485 L 129.818 235.273 130.606 234.561 C 131.039 234.169,131.394 233.815,131.394 233.773 C 131.394 233.586,131.194 233.750,130.530 234.485 M196.848 234.015 C 196.848 234.057,197.203 234.412,197.636 234.803 L 198.424 235.515 197.712 234.727 C 197.049 233.993,196.848 233.828,196.848 234.015 M158.545 234.985 C 158.545 235.027,158.900 235.381,159.333 235.773 L 160.121 236.485 159.409 235.697 C 158.745 234.963,158.545 234.798,158.545 234.985 M317.576 237.894 C 317.576 237.936,317.930 238.290,318.364 238.682 L 319.152 239.394 318.439 238.606 C 317.776 237.872,317.576 237.707,317.576 237.894 M125.924 239.333 L 125.212 240.121 126.000 239.409 C 126.433 239.018,126.788 238.663,126.788 238.621 C 126.788 238.434,126.588 238.599,125.924 239.333 M163.394 239.591 C 163.394 239.633,163.748 239.987,164.182 240.379 L 164.970 241.091 164.258 240.303 C 163.594 239.569,163.394 239.404,163.394 239.591 M274.773 241.273 L 274.061 242.061 274.848 241.349 C 275.583 240.685,275.748 240.485,275.561 240.485 C 275.519 240.485,275.164 240.839,274.773 241.273 M322.424 242.500 C 322.424 242.542,322.779 242.896,323.212 243.288 L 324.000 244.000 323.288 243.212 C 322.624 242.478,322.424 242.313,322.424 242.500 M121.318 244.182 L 120.606 244.970 121.394 244.258 C 122.128 243.594,122.293 243.394,122.106 243.394 C 122.064 243.394,121.710 243.748,121.318 244.182 M168.242 244.197 C 168.242 244.239,168.597 244.593,169.030 244.985 L 169.818 245.697 169.106 244.909 C 168.442 244.175,168.242 244.010,168.242 244.197 M270.167 246.121 L 269.455 246.909 270.242 246.197 C 270.977 245.533,271.142 245.333,270.954 245.333 C 270.913 245.333,270.558 245.688,270.167 246.121 M327.273 247.106 C 327.273 247.148,327.627 247.502,328.061 247.894 L 328.848 248.606 328.136 247.818 C 327.473 247.084,327.273 246.919,327.273 247.106 M116.712 249.030 L 116.000 249.818 116.788 249.106 C 117.522 248.442,117.687 248.242,117.500 248.242 C 117.458 248.242,117.104 248.597,116.712 249.030 M173.091 248.803 C 173.091 248.845,173.445 249.199,173.879 249.591 L 174.667 250.303 173.955 249.515 C 173.291 248.781,173.091 248.616,173.091 248.803 M265.561 250.970 L 264.848 251.758 265.636 251.046 C 266.371 250.382,266.536 250.182,266.348 250.182 C 266.307 250.182,265.952 250.536,265.561 250.970 M332.121 251.712 C 332.121 251.754,332.476 252.108,332.909 252.500 L 333.697 253.212 332.985 252.424 C 332.321 251.690,332.121 251.525,332.121 251.712 M112.106 253.879 L 111.394 254.667 112.182 253.955 C 112.615 253.563,112.970 253.208,112.970 253.167 C 112.970 252.979,112.770 253.144,112.106 253.879 M177.939 253.409 C 177.939 253.451,178.294 253.805,178.727 254.197 L 179.515 254.909 178.803 254.121 C 178.139 253.387,177.939 253.222,177.939 253.409 M73.318 254.848 L 72.606 255.636 73.394 254.924 C 73.827 254.533,74.182 254.178,74.182 254.136 C 74.182 253.949,73.982 254.114,73.318 254.848 M260.954 255.818 L 260.242 256.606 261.030 255.894 C 261.765 255.230,261.930 255.030,261.742 255.030 C 261.701 255.030,261.346 255.385,260.954 255.818 M336.970 256.318 C 336.970 256.360,337.324 256.715,337.758 257.106 L 338.545 257.818 337.833 257.030 C 337.170 256.296,336.970 256.131,336.970 256.318 M296.833 257.758 L 296.121 258.545 296.909 257.833 C 297.644 257.170,297.808 256.970,297.621 256.970 C 297.579 256.970,297.225 257.324,296.833 257.758 M107.500 258.727 L 106.788 259.515 107.576 258.803 C 108.009 258.412,108.364 258.057,108.364 258.015 C 108.364 257.828,108.164 257.993,107.500 258.727 M68.954 259.455 L 68.242 260.242 69.030 259.530 C 69.765 258.867,69.930 258.667,69.742 258.667 C 69.701 258.667,69.346 259.021,68.954 259.455 M256.348 260.667 L 255.636 261.455 256.424 260.743 C 257.159 260.079,257.324 259.879,257.136 259.879 C 257.095 259.879,256.740 260.233,256.348 260.667 M303.030 260.727 C 303.483 261.194,303.907 261.576,303.974 261.576 C 304.041 261.576,303.725 261.194,303.273 260.727 C 302.820 260.261,302.396 259.879,302.329 259.879 C 302.262 259.879,302.578 260.261,303.030 260.727 M107.394 260.439 C 107.394 260.481,107.748 260.836,108.182 261.227 L 108.970 261.939 108.258 261.152 C 107.594 260.417,107.394 260.252,107.394 260.439 M341.818 260.924 C 341.818 260.966,342.173 261.321,342.606 261.712 L 343.394 262.424 342.682 261.636 C 342.018 260.902,341.818 260.737,341.818 260.924 M292.227 262.606 L 291.515 263.394 292.303 262.682 C 293.037 262.018,293.202 261.818,293.015 261.818 C 292.973 261.818,292.619 262.173,292.227 262.606 M69.091 262.136 C 69.091 262.178,69.445 262.533,69.879 262.924 L 70.667 263.636 69.955 262.848 C 69.291 262.114,69.091 261.949,69.091 262.136 M251.742 265.515 L 251.030 266.303 251.818 265.591 C 252.553 264.927,252.717 264.727,252.530 264.727 C 252.488 264.727,252.134 265.082,251.742 265.515 M112.242 265.046 C 112.242 265.087,112.597 265.442,113.030 265.833 L 113.818 266.545 113.106 265.758 C 112.442 265.023,112.242 264.858,112.242 265.046 M346.667 265.530 C 346.667 265.572,347.021 265.927,347.455 266.318 L 348.242 267.030 347.530 266.242 C 346.867 265.508,346.667 265.343,346.667 265.530 M309.333 266.788 C 309.786 267.255,310.210 267.636,310.277 267.636 C 310.344 267.636,310.028 267.255,309.576 266.788 C 309.123 266.321,308.699 265.939,308.632 265.939 C 308.565 265.939,308.881 266.321,309.333 266.788 M73.939 266.743 C 73.939 266.784,74.294 267.139,74.727 267.530 L 75.515 268.242 74.803 267.455 C 74.139 266.720,73.939 266.555,73.939 266.743 M287.621 267.455 L 286.909 268.242 287.697 267.530 C 288.431 266.867,288.596 266.667,288.409 266.667 C 288.367 266.667,288.013 267.021,287.621 267.455 M117.091 269.652 C 117.091 269.693,117.445 270.048,117.879 270.439 L 118.667 271.152 117.955 270.364 C 117.291 269.629,117.091 269.464,117.091 269.652 M247.136 270.364 L 246.424 271.152 247.212 270.439 C 247.645 270.048,248.000 269.693,248.000 269.652 C 248.000 269.464,247.800 269.629,247.136 270.364 M351.515 270.136 C 351.515 270.178,351.870 270.533,352.303 270.924 L 353.091 271.636 352.379 270.848 C 351.715 270.114,351.515 269.949,351.515 270.136 M78.788 271.349 C 78.788 271.390,79.142 271.745,79.576 272.136 L 80.364 272.848 79.652 272.061 C 78.988 271.326,78.788 271.161,78.788 271.349 M283.015 272.303 L 282.303 273.091 283.091 272.379 C 283.825 271.715,283.990 271.515,283.803 271.515 C 283.761 271.515,283.407 271.870,283.015 272.303 M315.758 272.970 C 316.278 273.503,316.759 273.939,316.826 273.939 C 316.892 273.939,316.521 273.503,316.000 272.970 C 315.479 272.436,314.999 272.000,314.932 272.000 C 314.865 272.000,315.237 272.436,315.758 272.970 M121.939 274.258 C 121.939 274.299,122.294 274.654,122.727 275.046 L 123.515 275.758 122.803 274.970 C 122.139 274.235,121.939 274.070,121.939 274.258 M242.530 275.212 L 241.818 276.000 242.606 275.288 C 243.039 274.896,243.394 274.542,243.394 274.500 C 243.394 274.313,243.194 274.478,242.530 275.212 M83.636 275.955 C 83.636 275.996,83.991 276.351,84.424 276.743 L 85.212 277.455 84.500 276.667 C 83.836 275.932,83.636 275.767,83.636 275.955 M278.409 277.152 L 277.697 277.939 278.485 277.227 C 279.219 276.564,279.384 276.364,279.197 276.364 C 279.155 276.364,278.801 276.718,278.409 277.152 M355.138 277.758 L 354.303 278.667 355.212 277.831 C 355.712 277.372,356.121 276.963,356.121 276.922 C 356.121 276.737,355.916 276.911,355.138 277.758 M126.788 278.864 C 126.788 278.905,127.142 279.260,127.576 279.652 L 128.364 280.364 127.652 279.576 C 126.988 278.841,126.788 278.676,126.788 278.864 M237.924 280.061 L 237.212 280.848 238.000 280.136 C 238.734 279.473,238.899 279.273,238.712 279.273 C 238.670 279.273,238.316 279.627,237.924 280.061 M160.591 280.788 L 159.879 281.576 160.667 280.864 C 161.100 280.472,161.455 280.118,161.455 280.076 C 161.455 279.889,161.255 280.053,160.591 280.788 M88.485 280.561 C 88.485 280.602,88.839 280.957,89.273 281.349 L 90.061 282.061 89.349 281.273 C 88.685 280.538,88.485 280.373,88.485 280.561 M273.803 282.000 L 273.091 282.788 273.879 282.076 C 274.613 281.412,274.778 281.212,274.591 281.212 C 274.549 281.212,274.195 281.567,273.803 282.000 M349.805 283.333 L 348.970 284.242 349.879 283.407 C 350.379 282.948,350.788 282.538,350.788 282.498 C 350.788 282.313,350.583 282.487,349.805 283.333 M131.636 283.470 C 131.636 283.512,131.991 283.866,132.424 284.258 L 133.212 284.970 132.500 284.182 C 131.836 283.447,131.636 283.283,131.636 283.470 M155.985 285.636 L 155.273 286.424 156.061 285.712 C 156.494 285.321,156.848 284.966,156.848 284.924 C 156.848 284.737,156.648 284.902,155.985 285.636 M93.333 285.167 C 93.333 285.208,93.688 285.563,94.121 285.955 L 94.909 286.667 94.197 285.879 C 93.533 285.144,93.333 284.979,93.333 285.167 M136.485 288.076 C 136.485 288.118,136.839 288.472,137.273 288.864 L 138.061 289.576 137.349 288.788 C 136.685 288.053,136.485 287.889,136.485 288.076 M344.472 288.909 L 343.636 289.818 344.545 288.983 C 345.045 288.523,345.455 288.114,345.455 288.074 C 345.455 287.889,345.249 288.063,344.472 288.909 M98.182 289.773 C 98.182 289.815,98.536 290.169,98.970 290.561 L 99.758 291.273 99.046 290.485 C 98.382 289.750,98.182 289.586,98.182 289.773 M151.379 290.485 L 150.667 291.273 151.455 290.561 C 151.888 290.169,152.242 289.815,152.242 289.773 C 152.242 289.586,152.042 289.750,151.379 290.485 M141.333 292.682 C 141.333 292.724,141.688 293.078,142.121 293.470 L 142.909 294.182 142.197 293.394 C 141.533 292.660,141.333 292.495,141.333 292.682 M339.138 294.485 L 338.303 295.394 339.212 294.559 C 340.058 293.781,340.233 293.576,340.048 293.576 C 340.007 293.576,339.598 293.985,339.138 294.485 M103.030 294.379 C 103.030 294.421,103.385 294.775,103.818 295.167 L 104.606 295.879 103.894 295.091 C 103.230 294.356,103.030 294.192,103.030 294.379 M146.773 295.333 L 146.061 296.121 146.848 295.409 C 147.282 295.018,147.636 294.663,147.636 294.621 C 147.636 294.434,147.436 294.599,146.773 295.333 M107.879 298.985 C 107.879 299.027,108.233 299.381,108.667 299.773 L 109.455 300.485 108.743 299.697 C 108.079 298.963,107.879 298.798,107.879 298.985 M295.864 299.939 L 295.152 300.727 295.939 300.015 C 296.674 299.352,296.839 299.152,296.651 299.152 C 296.610 299.152,296.255 299.506,295.864 299.939 M333.924 299.939 L 333.212 300.727 334.000 300.015 C 334.734 299.352,334.899 299.152,334.712 299.152 C 334.670 299.152,334.316 299.506,333.924 299.939 M112.727 303.591 C 112.727 303.633,113.082 303.987,113.515 304.379 L 114.303 305.091 113.591 304.303 C 112.927 303.569,112.727 303.404,112.727 303.591 M291.257 304.788 L 290.545 305.576 291.333 304.864 C 292.068 304.200,292.233 304.000,292.045 304.000 C 292.004 304.000,291.649 304.355,291.257 304.788 M328.591 305.515 L 327.879 306.303 328.667 305.591 C 329.401 304.927,329.566 304.727,329.379 304.727 C 329.337 304.727,328.982 305.082,328.591 305.515 M117.576 308.197 C 117.576 308.239,117.930 308.593,118.364 308.985 L 119.152 309.697 118.439 308.909 C 117.776 308.175,117.576 308.010,117.576 308.197 M286.651 309.636 L 285.939 310.424 286.727 309.712 C 287.462 309.049,287.627 308.848,287.439 308.848 C 287.398 308.848,287.043 309.203,286.651 309.636 M323.381 310.970 L 322.545 311.879 323.455 311.043 C 323.955 310.584,324.364 310.175,324.364 310.134 C 324.364 309.949,324.158 310.124,323.381 310.970 M238.545 311.106 C 238.545 311.148,238.900 311.502,239.333 311.894 L 240.121 312.606 239.409 311.818 C 238.745 311.084,238.545 310.919,238.545 311.106 M122.424 312.803 C 122.424 312.845,122.779 313.199,123.212 313.591 L 124.000 314.303 123.288 313.515 C 122.624 312.781,122.424 312.616,122.424 312.803 M282.045 314.485 L 281.333 315.273 282.121 314.561 C 282.856 313.897,283.021 313.697,282.833 313.697 C 282.792 313.697,282.437 314.052,282.045 314.485 M318.048 316.545 L 317.212 317.455 318.121 316.619 C 318.967 315.842,319.142 315.636,318.957 315.636 C 318.916 315.636,318.507 316.045,318.048 316.545 M127.273 317.409 C 127.273 317.451,127.627 317.805,128.061 318.197 L 128.848 318.909 128.136 318.121 C 127.473 317.387,127.273 317.222,127.273 317.409 M277.439 319.333 L 276.727 320.121 277.515 319.409 C 278.250 318.745,278.414 318.545,278.227 318.545 C 278.185 318.545,277.831 318.900,277.439 319.333 M312.714 322.121 L 311.879 323.030 312.788 322.195 C 313.288 321.735,313.697 321.326,313.697 321.286 C 313.697 321.101,313.492 321.275,312.714 322.121 M132.121 322.015 C 132.121 322.057,132.476 322.412,132.909 322.803 L 133.697 323.515 132.985 322.727 C 132.321 321.993,132.121 321.828,132.121 322.015 M272.833 324.182 L 272.121 324.970 272.909 324.258 C 273.644 323.594,273.808 323.394,273.621 323.394 C 273.579 323.394,273.225 323.748,272.833 324.182 M136.970 326.621 C 136.970 326.663,137.324 327.018,137.758 327.409 L 138.545 328.121 137.833 327.333 C 137.170 326.599,136.970 326.434,136.970 326.621 M307.381 327.697 L 306.545 328.606 307.455 327.771 C 307.955 327.311,308.364 326.902,308.364 326.862 C 308.364 326.676,308.158 326.851,307.381 327.697 M268.227 329.030 L 267.515 329.818 268.303 329.106 C 269.037 328.442,269.202 328.242,269.015 328.242 C 268.973 328.242,268.619 328.597,268.227 329.030 M141.818 331.227 C 141.818 331.269,142.173 331.624,142.606 332.015 L 143.394 332.727 142.682 331.939 C 142.018 331.205,141.818 331.040,141.818 331.227 M302.048 333.273 L 301.212 334.182 302.121 333.346 C 302.621 332.887,303.030 332.478,303.030 332.437 C 303.030 332.252,302.825 332.427,302.048 333.273 M263.632 333.823 L 262.930 334.555 263.640 335.217 L 264.350 335.879 263.768 335.210 L 263.185 334.542 263.880 333.817 C 264.263 333.417,264.521 333.091,264.454 333.091 C 264.388 333.091,264.017 333.420,263.632 333.823 M296.833 338.727 L 296.121 339.515 296.909 338.803 C 297.644 338.139,297.808 337.939,297.621 337.939 C 297.579 337.939,297.225 338.294,296.833 338.727 M267.636 338.985 C 267.636 339.027,267.991 339.381,268.424 339.773 L 269.212 340.485 268.500 339.697 C 267.836 338.963,267.636 338.798,267.636 338.985 M272.485 343.591 C 272.485 343.633,272.839 343.987,273.273 344.379 L 274.061 345.091 273.349 344.303 C 272.685 343.569,272.485 343.404,272.485 343.591 M291.500 344.303 L 290.788 345.091 291.576 344.379 C 292.310 343.715,292.475 343.515,292.288 343.515 C 292.246 343.515,291.892 343.870,291.500 344.303 M277.333 348.197 C 277.333 348.239,277.688 348.593,278.121 348.985 L 278.909 349.697 278.197 348.909 C 277.533 348.175,277.333 348.010,277.333 348.197 M286.167 349.879 L 285.455 350.667 286.242 349.955 C 286.977 349.291,287.142 349.091,286.954 349.091 C 286.913 349.091,286.558 349.445,286.167 349.879 " stroke="none" fill="#5b5e5e" fill-rule="evenodd"></path><path id="path4" d="" stroke="none" fill="#7c7c7c" fill-rule="evenodd"></path></g></svg>